<svg width="540" height="644" viewBox="0 0 540 644" fill="none" xmlns="http://www.w3.org/2000/svg">
<g clip-path="url(#clip0_14_132)">
<path d="M231.615 0H30C13.4315 0 0 13.4315 0 30V116C0 132.569 13.4315 146 30 146H231.615C248.184 146 261.615 132.569 261.615 116V30C261.615 13.4315 248.184 0 231.615 0Z" fill="#0093A1"/>
<path fill-rule="evenodd" clip-rule="evenodd" d="M30 166C13.4315 166 0 179.431 0 196V312V448C0 464.569 13.4315 478 30 478H92.4224C108.991 478 122.422 464.569 122.422 448V352C122.422 329.909 140.331 312 162.422 312H231.615C248.183 312 261.615 298.569 261.615 282V196C261.615 179.431 248.183 166 231.615 166H30Z" fill="#0093A1" fill-opacity="0.2"/>
<path fill-rule="evenodd" clip-rule="evenodd" d="M308.385 0C291.816 0 278.385 13.4315 278.385 30V116C278.385 132.569 291.816 146 308.385 146H377.578C399.669 146 417.578 163.909 417.578 186V282C417.578 298.569 431.01 312 447.578 312H510C526.569 312 540 298.569 540 282V146V30C540 13.4315 526.568 0 510 0H308.385Z" fill="#0093A1" fill-opacity="0.8"/>
<path fill-rule="evenodd" clip-rule="evenodd" d="M169.192 332C152.624 332 139.192 345.431 139.192 362V458C139.192 480.091 121.283 498 99.192 498H30C13.4315 498 0 511.431 0 528V614C0 630.569 13.4315 644 30 644H370.807C387.376 644 400.807 630.569 400.807 614V528C400.807 511.431 387.376 498 370.807 498H301.615C279.524 498 261.615 480.091 261.615 458V362C261.615 345.431 248.183 332 231.615 332H169.192Z" fill="#0093A1" fill-opacity="0.4"/>
<path fill-rule="evenodd" clip-rule="evenodd" d="M308.385 166C291.816 166 278.385 179.431 278.385 196V332V448C278.385 464.569 291.816 478 308.385 478H377.578C399.669 478 417.578 495.909 417.578 518V614C417.578 630.569 431.01 644 447.578 644H510C526.569 644 540 630.569 540 614V478V362C540 345.431 526.568 332 510 332H440.807C418.715 332 400.807 314.091 400.807 292V196C400.807 179.431 387.376 166 370.807 166H308.385Z" fill="#0093A1" fill-opacity="0.6"/>
<path d="M60.1582 84H56.125L46.3359 68.0449H46.2129C46.2493 68.5827 46.2812 69.1523 46.3086 69.7539C46.3451 70.3555 46.3724 70.9753 46.3906 71.6133C46.418 72.2513 46.4408 72.8984 46.459 73.5547V84H43.4785V64.0117H47.4844L57.2598 79.8574H57.3555C57.3372 79.3926 57.3145 78.8594 57.2871 78.2578C57.2598 77.6562 57.2324 77.0365 57.2051 76.3984C57.1868 75.7513 57.1732 75.127 57.1641 74.5254V64.0117H60.1582V84ZM78.4785 76.3984C78.4785 77.6562 78.3145 78.7728 77.9863 79.748C77.6582 80.7233 77.1797 81.5482 76.5508 82.2227C75.9219 82.888 75.1654 83.3984 74.2812 83.7539C73.3971 84.1003 72.3991 84.2734 71.2871 84.2734C70.248 84.2734 69.2956 84.1003 68.4297 83.7539C67.5638 83.3984 66.8118 82.888 66.1738 82.2227C65.5449 81.5482 65.0573 80.7233 64.7109 79.748C64.3646 78.7728 64.1914 77.6562 64.1914 76.3984C64.1914 74.7305 64.4785 73.3177 65.0527 72.1602C65.6361 70.9935 66.4655 70.1048 67.541 69.4941C68.6165 68.8835 69.8971 68.5781 71.3828 68.5781C72.7773 68.5781 74.0078 68.8835 75.0742 69.4941C76.1406 70.1048 76.9746 70.9935 77.5762 72.1602C78.1777 73.3268 78.4785 74.7396 78.4785 76.3984ZM67.5 76.3984C67.5 77.5013 67.6322 78.4447 67.8965 79.2285C68.1699 80.0124 68.5892 80.6139 69.1543 81.0332C69.7194 81.4434 70.4486 81.6484 71.3418 81.6484C72.235 81.6484 72.9642 81.4434 73.5293 81.0332C74.0944 80.6139 74.5091 80.0124 74.7734 79.2285C75.0378 78.4447 75.1699 77.5013 75.1699 76.3984C75.1699 75.2956 75.0378 74.3613 74.7734 73.5957C74.5091 72.821 74.0944 72.2331 73.5293 71.832C72.9642 71.4219 72.2305 71.2168 71.3281 71.2168C69.9974 71.2168 69.0267 71.6634 68.416 72.5566C67.8053 73.4499 67.5 74.7305 67.5 76.3984ZM95.0762 81.6758C95.4954 81.6758 95.9102 81.6393 96.3203 81.5664C96.7305 81.4844 97.1042 81.3887 97.4414 81.2793V83.7129C97.0859 83.8678 96.6257 84 96.0605 84.1094C95.4954 84.2188 94.9076 84.2734 94.2969 84.2734C93.4401 84.2734 92.6699 84.1322 91.9863 83.8496C91.3027 83.5579 90.7604 83.0612 90.3594 82.3594C89.9583 81.6576 89.7578 80.6868 89.7578 79.4473V71.3125H87.6934V69.877L89.9082 68.7422L90.9609 65.502H92.9844V68.8652H97.3184V71.3125H92.9844V79.4062C92.9844 80.1719 93.1758 80.7415 93.5586 81.1152C93.9414 81.4889 94.4473 81.6758 95.0762 81.6758ZM106.547 68.5781C107.896 68.5781 109.053 68.8561 110.02 69.4121C110.986 69.9681 111.729 70.7565 112.248 71.7773C112.768 72.7982 113.027 74.0195 113.027 75.4414V77.1641H102.924C102.96 78.6315 103.352 79.7617 104.1 80.5547C104.856 81.3477 105.913 81.7441 107.271 81.7441C108.238 81.7441 109.104 81.653 109.869 81.4707C110.644 81.2793 111.441 81.0013 112.262 80.6367V83.248C111.505 83.6035 110.735 83.8633 109.951 84.0273C109.167 84.1914 108.229 84.2734 107.135 84.2734C105.649 84.2734 104.341 83.9863 103.211 83.4121C102.09 82.8288 101.21 81.9629 100.572 80.8145C99.9434 79.666 99.6289 78.2396 99.6289 76.5352C99.6289 74.8398 99.916 73.3997 100.49 72.2148C101.064 71.0299 101.871 70.1276 102.91 69.5078C103.949 68.888 105.161 68.5781 106.547 68.5781ZM106.547 70.998C105.535 70.998 104.715 71.3262 104.086 71.9824C103.466 72.6387 103.102 73.6003 102.992 74.8672H109.883C109.874 74.1107 109.746 73.4408 109.5 72.8574C109.263 72.2741 108.898 71.8184 108.406 71.4902C107.923 71.1621 107.303 70.998 106.547 70.998ZM122.748 84.2734C121.317 84.2734 120.077 83.9954 119.029 83.4395C117.981 82.8835 117.174 82.0312 116.609 80.8828C116.044 79.7344 115.762 78.276 115.762 76.5078C115.762 74.6667 116.072 73.1628 116.691 71.9961C117.311 70.8294 118.168 69.9681 119.262 69.4121C120.365 68.8561 121.627 68.5781 123.049 68.5781C123.951 68.5781 124.767 68.6693 125.496 68.8516C126.234 69.0247 126.859 69.2389 127.369 69.4941L126.412 72.0645C125.856 71.8366 125.286 71.6452 124.703 71.4902C124.12 71.3353 123.559 71.2578 123.021 71.2578C122.137 71.2578 121.399 71.4538 120.807 71.8457C120.223 72.2376 119.786 72.821 119.494 73.5957C119.212 74.3704 119.07 75.332 119.07 76.4805C119.07 77.5924 119.216 78.5312 119.508 79.2969C119.799 80.0534 120.232 80.6276 120.807 81.0195C121.381 81.4023 122.087 81.5938 122.926 81.5938C123.755 81.5938 124.498 81.4935 125.154 81.293C125.811 81.0924 126.43 80.8327 127.014 80.5137V83.3027C126.439 83.6309 125.824 83.8724 125.168 84.0273C124.512 84.1914 123.705 84.2734 122.748 84.2734ZM133.781 62.7266V68.0723C133.781 68.6283 133.763 69.1706 133.727 69.6992C133.699 70.2279 133.667 70.638 133.631 70.9297H133.809C134.128 70.401 134.52 69.9681 134.984 69.6309C135.449 69.2845 135.969 69.0247 136.543 68.8516C137.126 68.6784 137.746 68.5918 138.402 68.5918C139.56 68.5918 140.544 68.7878 141.355 69.1797C142.167 69.5625 142.786 70.1595 143.215 70.9707C143.652 71.7819 143.871 72.8346 143.871 74.1289V84H140.658V74.7305C140.658 73.5547 140.417 72.6751 139.934 72.0918C139.451 71.4993 138.703 71.2031 137.691 71.2031C136.716 71.2031 135.941 71.4082 135.367 71.8184C134.802 72.2194 134.396 72.8164 134.15 73.6094C133.904 74.3932 133.781 75.3503 133.781 76.4805V84H130.568V62.7266H133.781ZM165.814 79.6797C165.814 80.6732 165.573 81.5117 165.09 82.1953C164.607 82.8789 163.9 83.3984 162.971 83.7539C162.05 84.1003 160.92 84.2734 159.58 84.2734C158.523 84.2734 157.611 84.196 156.846 84.041C156.089 83.8952 155.374 83.6673 154.699 83.3574V80.582C155.419 80.9193 156.226 81.2109 157.119 81.457C158.021 81.7031 158.874 81.8262 159.676 81.8262C160.733 81.8262 161.494 81.6621 161.959 81.334C162.424 80.9967 162.656 80.5501 162.656 79.9941C162.656 79.666 162.561 79.3743 162.369 79.1191C162.187 78.8548 161.84 78.5859 161.33 78.3125C160.829 78.0299 160.09 77.6927 159.115 77.3008C158.158 76.918 157.352 76.5352 156.695 76.1523C156.039 75.7695 155.542 75.3092 155.205 74.7715C154.868 74.2246 154.699 73.5273 154.699 72.6797C154.699 71.3398 155.228 70.3236 156.285 69.6309C157.352 68.929 158.76 68.5781 160.51 68.5781C161.439 68.5781 162.314 68.6738 163.135 68.8652C163.964 69.0475 164.775 69.3164 165.568 69.6719L164.557 72.0918C163.873 71.791 163.185 71.5449 162.492 71.3535C161.809 71.153 161.111 71.0527 160.4 71.0527C159.571 71.0527 158.938 71.1803 158.5 71.4355C158.072 71.6908 157.857 72.0553 157.857 72.5293C157.857 72.8848 157.962 73.1855 158.172 73.4316C158.382 73.6777 158.742 73.9238 159.252 74.1699C159.771 74.416 160.492 74.7214 161.412 75.0859C162.314 75.4323 163.094 75.7969 163.75 76.1797C164.415 76.5534 164.926 77.0137 165.281 77.5605C165.637 78.1074 165.814 78.8138 165.814 79.6797ZM172.5 62.7266V73.0078C172.5 73.4727 172.482 73.9831 172.445 74.5391C172.409 75.0859 172.372 75.6009 172.336 76.084H172.404C172.641 75.765 172.924 75.3913 173.252 74.9629C173.589 74.5345 173.908 74.1608 174.209 73.8418L178.83 68.8652H182.521L176.465 75.373L182.918 84H179.145L174.305 77.3555L172.5 78.9004V84H169.287V62.7266H172.5ZM188.551 68.8652V84H185.338V68.8652H188.551ZM186.965 63.0684C187.457 63.0684 187.881 63.2005 188.236 63.4648C188.601 63.7292 188.783 64.1849 188.783 64.832C188.783 65.4701 188.601 65.9258 188.236 66.1992C187.881 66.4635 187.457 66.5957 186.965 66.5957C186.454 66.5957 186.021 66.4635 185.666 66.1992C185.32 65.9258 185.146 65.4701 185.146 64.832C185.146 64.1849 185.32 63.7292 185.666 63.4648C186.021 63.2005 186.454 63.0684 186.965 63.0684ZM196.385 84H193.158V62.7266H196.385V84ZM204.205 84H200.979V62.7266H204.205V84ZM218.971 79.6797C218.971 80.6732 218.729 81.5117 218.246 82.1953C217.763 82.8789 217.057 83.3984 216.127 83.7539C215.206 84.1003 214.076 84.2734 212.736 84.2734C211.679 84.2734 210.768 84.196 210.002 84.041C209.245 83.8952 208.53 83.6673 207.855 83.3574V80.582C208.576 80.9193 209.382 81.2109 210.275 81.457C211.178 81.7031 212.03 81.8262 212.832 81.8262C213.889 81.8262 214.65 81.6621 215.115 81.334C215.58 80.9967 215.812 80.5501 215.812 79.9941C215.812 79.666 215.717 79.3743 215.525 79.1191C215.343 78.8548 214.997 78.5859 214.486 78.3125C213.985 78.0299 213.247 77.6927 212.271 77.3008C211.314 76.918 210.508 76.5352 209.852 76.1523C209.195 75.7695 208.699 75.3092 208.361 74.7715C208.024 74.2246 207.855 73.5273 207.855 72.6797C207.855 71.3398 208.384 70.3236 209.441 69.6309C210.508 68.929 211.916 68.5781 213.666 68.5781C214.596 68.5781 215.471 68.6738 216.291 68.8652C217.12 69.0475 217.932 69.3164 218.725 69.6719L217.713 72.0918C217.029 71.791 216.341 71.5449 215.648 71.3535C214.965 71.153 214.268 71.0527 213.557 71.0527C212.727 71.0527 212.094 71.1803 211.656 71.4355C211.228 71.6908 211.014 72.0553 211.014 72.5293C211.014 72.8848 211.118 73.1855 211.328 73.4316C211.538 73.6777 211.898 73.9238 212.408 74.1699C212.928 74.416 213.648 74.7214 214.568 75.0859C215.471 75.4323 216.25 75.7969 216.906 76.1797C217.572 76.5534 218.082 77.0137 218.438 77.5605C218.793 78.1074 218.971 78.8138 218.971 79.6797Z" fill="white"/>
<path d="M358.051 67H346.73V47.0117H358.051V49.7734H350.012V55.2012H357.545V57.9492H350.012V64.2246H358.051V67ZM367.977 51.5781C369.891 51.5781 371.335 52.002 372.311 52.8496C373.295 53.6973 373.787 55.0189 373.787 56.8145V67H371.504L370.889 64.8535H370.779C370.351 65.4004 369.909 65.8516 369.453 66.207C368.997 66.5625 368.469 66.8268 367.867 67C367.275 67.1823 366.55 67.2734 365.693 67.2734C364.791 67.2734 363.984 67.1094 363.273 66.7812C362.562 66.444 362.002 65.9336 361.592 65.25C361.182 64.5664 360.977 63.7005 360.977 62.6523C360.977 61.0938 361.555 59.9225 362.713 59.1387C363.88 58.3548 365.639 57.9219 367.99 57.8398L370.615 57.7441V56.9512C370.615 55.903 370.369 55.1556 369.877 54.709C369.394 54.2624 368.71 54.0391 367.826 54.0391C367.07 54.0391 366.336 54.1484 365.625 54.3672C364.914 54.5859 364.221 54.8548 363.547 55.1738L362.508 52.9043C363.246 52.5124 364.085 52.1934 365.023 51.9473C365.971 51.7012 366.956 51.5781 367.977 51.5781ZM370.602 59.7676L368.646 59.8359C367.042 59.8906 365.917 60.1641 365.27 60.6562C364.622 61.1484 364.299 61.8229 364.299 62.6797C364.299 63.4271 364.522 63.974 364.969 64.3203C365.415 64.6576 366.003 64.8262 366.732 64.8262C367.844 64.8262 368.765 64.5117 369.494 63.8828C370.232 63.2448 370.602 62.3105 370.602 61.0801V59.7676ZM388.457 62.6797C388.457 63.6732 388.215 64.5117 387.732 65.1953C387.249 65.8789 386.543 66.3984 385.613 66.7539C384.693 67.1003 383.562 67.2734 382.223 67.2734C381.165 67.2734 380.254 67.196 379.488 67.041C378.732 66.8952 378.016 66.6673 377.342 66.3574V63.582C378.062 63.9193 378.868 64.2109 379.762 64.457C380.664 64.7031 381.516 64.8262 382.318 64.8262C383.376 64.8262 384.137 64.6621 384.602 64.334C385.066 63.9967 385.299 63.5501 385.299 62.9941C385.299 62.666 385.203 62.3743 385.012 62.1191C384.829 61.8548 384.483 61.5859 383.973 61.3125C383.471 61.0299 382.733 60.6927 381.758 60.3008C380.801 59.918 379.994 59.5352 379.338 59.1523C378.682 58.7695 378.185 58.3092 377.848 57.7715C377.51 57.2246 377.342 56.5273 377.342 55.6797C377.342 54.3398 377.87 53.3236 378.928 52.6309C379.994 51.929 381.402 51.5781 383.152 51.5781C384.082 51.5781 384.957 51.6738 385.777 51.8652C386.607 52.0475 387.418 52.3164 388.211 52.6719L387.199 55.0918C386.516 54.791 385.827 54.5449 385.135 54.3535C384.451 54.153 383.754 54.0527 383.043 54.0527C382.214 54.0527 381.58 54.1803 381.143 54.4355C380.714 54.6908 380.5 55.0553 380.5 55.5293C380.5 55.8848 380.605 56.1855 380.814 56.4316C381.024 56.6777 381.384 56.9238 381.895 57.1699C382.414 57.416 383.134 57.7214 384.055 58.0859C384.957 58.4323 385.736 58.7969 386.393 59.1797C387.058 59.5534 387.568 60.0137 387.924 60.5605C388.279 61.1074 388.457 61.8138 388.457 62.6797ZM389.646 51.8652H393.146L396.25 60.5059C396.387 60.8978 396.51 61.2852 396.619 61.668C396.738 62.0417 396.838 62.4108 396.92 62.7754C397.011 63.14 397.084 63.5046 397.139 63.8691H397.221C397.312 63.3952 397.439 62.8665 397.604 62.2832C397.777 61.6908 397.968 61.0983 398.178 60.5059L401.158 51.8652H404.617L398.123 69.0781C397.749 70.0625 397.289 70.901 396.742 71.5938C396.204 72.2956 395.566 72.8242 394.828 73.1797C394.09 73.5443 393.247 73.7266 392.299 73.7266C391.843 73.7266 391.447 73.6992 391.109 73.6445C390.772 73.599 390.485 73.5488 390.248 73.4941V70.9238C390.439 70.9694 390.681 71.0104 390.973 71.0469C391.264 71.0833 391.565 71.1016 391.875 71.1016C392.449 71.1016 392.946 70.9876 393.365 70.7598C393.785 70.5319 394.14 70.2083 394.432 69.7891C394.723 69.3789 394.965 68.9095 395.156 68.3809L395.689 66.959L389.646 51.8652ZM419.273 67.2734C417.469 67.2734 416.02 66.6172 414.926 65.3047C413.841 63.9831 413.299 62.0371 413.299 59.4668C413.299 56.8691 413.85 54.9049 414.953 53.5742C416.065 52.2435 417.528 51.5781 419.342 51.5781C420.107 51.5781 420.777 51.6829 421.352 51.8926C421.926 52.0931 422.418 52.3665 422.828 52.7129C423.247 53.0592 423.603 53.4466 423.895 53.875H424.045C423.999 53.5924 423.945 53.1868 423.881 52.6582C423.826 52.1204 423.799 51.6237 423.799 51.168V45.7266H427.025V67H424.51L423.936 64.9355H423.799C423.525 65.373 423.179 65.7695 422.76 66.125C422.35 66.4714 421.857 66.7493 421.283 66.959C420.718 67.1686 420.048 67.2734 419.273 67.2734ZM420.176 64.6621C421.552 64.6621 422.523 64.2656 423.088 63.4727C423.653 62.6797 423.945 61.4902 423.963 59.9043V59.4805C423.963 57.7852 423.689 56.4863 423.143 55.584C422.596 54.6725 421.598 54.2168 420.148 54.2168C418.991 54.2168 418.107 54.6862 417.496 55.625C416.895 56.5547 416.594 57.8535 416.594 59.5215C416.594 61.1895 416.895 62.4655 417.496 63.3496C418.107 64.2246 419 64.6621 420.176 64.6621ZM437.566 51.5781C439.48 51.5781 440.925 52.002 441.9 52.8496C442.885 53.6973 443.377 55.0189 443.377 56.8145V67H441.094L440.479 64.8535H440.369C439.941 65.4004 439.499 65.8516 439.043 66.207C438.587 66.5625 438.059 66.8268 437.457 67C436.865 67.1823 436.14 67.2734 435.283 67.2734C434.381 67.2734 433.574 67.1094 432.863 66.7812C432.152 66.444 431.592 65.9336 431.182 65.25C430.771 64.5664 430.566 63.7005 430.566 62.6523C430.566 61.0938 431.145 59.9225 432.303 59.1387C433.469 58.3548 435.229 57.9219 437.58 57.8398L440.205 57.7441V56.9512C440.205 55.903 439.959 55.1556 439.467 54.709C438.984 54.2624 438.3 54.0391 437.416 54.0391C436.66 54.0391 435.926 54.1484 435.215 54.3672C434.504 54.5859 433.811 54.8548 433.137 55.1738L432.098 52.9043C432.836 52.5124 433.674 52.1934 434.613 51.9473C435.561 51.7012 436.546 51.5781 437.566 51.5781ZM440.191 59.7676L438.236 59.8359C436.632 59.8906 435.507 60.1641 434.859 60.6562C434.212 61.1484 433.889 61.8229 433.889 62.6797C433.889 63.4271 434.112 63.974 434.559 64.3203C435.005 64.6576 435.593 64.8262 436.322 64.8262C437.434 64.8262 438.355 64.5117 439.084 63.8828C439.822 63.2448 440.191 62.3105 440.191 61.0801V59.7676ZM453.508 64.6758C453.927 64.6758 454.342 64.6393 454.752 64.5664C455.162 64.4844 455.536 64.3887 455.873 64.2793V66.7129C455.518 66.8678 455.057 67 454.492 67.1094C453.927 67.2188 453.339 67.2734 452.729 67.2734C451.872 67.2734 451.102 67.1322 450.418 66.8496C449.734 66.5579 449.192 66.0612 448.791 65.3594C448.39 64.6576 448.189 63.6868 448.189 62.4473V54.3125H446.125V52.877L448.34 51.7422L449.393 48.502H451.416V51.8652H455.75V54.3125H451.416V62.4062C451.416 63.1719 451.607 63.7415 451.99 64.1152C452.373 64.4889 452.879 64.6758 453.508 64.6758ZM464.883 51.5781C466.797 51.5781 468.242 52.002 469.217 52.8496C470.201 53.6973 470.693 55.0189 470.693 56.8145V67H468.41L467.795 64.8535H467.686C467.257 65.4004 466.815 65.8516 466.359 66.207C465.904 66.5625 465.375 66.8268 464.773 67C464.181 67.1823 463.456 67.2734 462.6 67.2734C461.697 67.2734 460.891 67.1094 460.18 66.7812C459.469 66.444 458.908 65.9336 458.498 65.25C458.088 64.5664 457.883 63.7005 457.883 62.6523C457.883 61.0938 458.462 59.9225 459.619 59.1387C460.786 58.3548 462.545 57.9219 464.896 57.8398L467.521 57.7441V56.9512C467.521 55.903 467.275 55.1556 466.783 54.709C466.3 54.2624 465.617 54.0391 464.732 54.0391C463.976 54.0391 463.242 54.1484 462.531 54.3672C461.82 54.5859 461.128 54.8548 460.453 55.1738L459.414 52.9043C460.152 52.5124 460.991 52.1934 461.93 51.9473C462.878 51.7012 463.862 51.5781 464.883 51.5781ZM467.508 59.7676L465.553 59.8359C463.949 59.8906 462.823 60.1641 462.176 60.6562C461.529 61.1484 461.205 61.8229 461.205 62.6797C461.205 63.4271 461.428 63.974 461.875 64.3203C462.322 64.6576 462.91 64.8262 463.639 64.8262C464.751 64.8262 465.671 64.5117 466.4 63.8828C467.139 63.2448 467.508 62.3105 467.508 61.0801V59.7676ZM348.781 85.5781C350.695 85.5781 352.14 86.002 353.115 86.8496C354.1 87.6973 354.592 89.0189 354.592 90.8145V101H352.309L351.693 98.8535H351.584C351.156 99.4004 350.714 99.8516 350.258 100.207C349.802 100.562 349.273 100.827 348.672 101C348.079 101.182 347.355 101.273 346.498 101.273C345.596 101.273 344.789 101.109 344.078 100.781C343.367 100.444 342.807 99.9336 342.396 99.25C341.986 98.5664 341.781 97.7005 341.781 96.6523C341.781 95.0938 342.36 93.9225 343.518 93.1387C344.684 92.3548 346.443 91.9219 348.795 91.8398L351.42 91.7441V90.9512C351.42 89.903 351.174 89.1556 350.682 88.709C350.199 88.2624 349.515 88.0391 348.631 88.0391C347.874 88.0391 347.141 88.1484 346.43 88.3672C345.719 88.5859 345.026 88.8548 344.352 89.1738L343.312 86.9043C344.051 86.5124 344.889 86.1934 345.828 85.9473C346.776 85.7012 347.76 85.5781 348.781 85.5781ZM351.406 93.7676L349.451 93.8359C347.847 93.8906 346.721 94.1641 346.074 94.6562C345.427 95.1484 345.104 95.8229 345.104 96.6797C345.104 97.4271 345.327 97.974 345.773 98.3203C346.22 98.6576 346.808 98.8262 347.537 98.8262C348.649 98.8262 349.57 98.5117 350.299 97.8828C351.037 97.2448 351.406 96.3105 351.406 95.0801V93.7676ZM362.316 101H359.09V79.7266H362.316V101ZM370.137 101H366.91V79.7266H370.137V101ZM388.129 93.3984C388.129 94.6562 387.965 95.7728 387.637 96.748C387.309 97.7233 386.83 98.5482 386.201 99.2227C385.572 99.888 384.816 100.398 383.932 100.754C383.048 101.1 382.049 101.273 380.938 101.273C379.898 101.273 378.946 101.1 378.08 100.754C377.214 100.398 376.462 99.888 375.824 99.2227C375.195 98.5482 374.708 97.7233 374.361 96.748C374.015 95.7728 373.842 94.6562 373.842 93.3984C373.842 91.7305 374.129 90.3177 374.703 89.1602C375.286 87.9935 376.116 87.1048 377.191 86.4941C378.267 85.8835 379.548 85.5781 381.033 85.5781C382.428 85.5781 383.658 85.8835 384.725 86.4941C385.791 87.1048 386.625 87.9935 387.227 89.1602C387.828 90.3268 388.129 91.7396 388.129 93.3984ZM377.15 93.3984C377.15 94.5013 377.283 95.4447 377.547 96.2285C377.82 97.0124 378.24 97.6139 378.805 98.0332C379.37 98.4434 380.099 98.6484 380.992 98.6484C381.885 98.6484 382.615 98.4434 383.18 98.0332C383.745 97.6139 384.16 97.0124 384.424 96.2285C384.688 95.4447 384.82 94.5013 384.82 93.3984C384.82 92.2956 384.688 91.3613 384.424 90.5957C384.16 89.821 383.745 89.2331 383.18 88.832C382.615 88.4219 381.881 88.2168 380.979 88.2168C379.648 88.2168 378.677 88.6634 378.066 89.5566C377.456 90.4499 377.15 91.7305 377.15 93.3984ZM404.193 100.986L402.279 93.9453C402.188 93.599 402.079 93.1797 401.951 92.6875C401.824 92.1953 401.696 91.6895 401.568 91.1699C401.441 90.6413 401.322 90.1536 401.213 89.707C401.113 89.2604 401.035 88.9141 400.98 88.668H400.871C400.826 88.9141 400.753 89.2604 400.652 89.707C400.552 90.1536 400.438 90.6413 400.311 91.1699C400.183 91.6986 400.055 92.2135 399.928 92.7148C399.809 93.2161 399.7 93.6445 399.6 94L397.59 100.986H394.062L389.824 85.8516H393.078L395.047 93.3711C395.174 93.8815 395.298 94.4329 395.416 95.0254C395.544 95.6178 395.653 96.1829 395.744 96.7207C395.835 97.2585 395.904 97.7005 395.949 98.0469H396.059C396.095 97.8008 396.145 97.4909 396.209 97.1172C396.273 96.7344 396.346 96.3379 396.428 95.9277C396.51 95.5085 396.592 95.1165 396.674 94.752C396.756 94.3783 396.833 94.0775 396.906 93.8496L399.23 85.8516H402.744L404.973 93.8496C405.073 94.196 405.182 94.6335 405.301 95.1621C405.419 95.6816 405.524 96.2057 405.615 96.7344C405.715 97.2539 405.779 97.6868 405.807 98.0332H405.916C405.952 97.7233 406.016 97.304 406.107 96.7754C406.208 96.2376 406.322 95.668 406.449 95.0664C406.577 94.4557 406.709 93.8906 406.846 93.3711L408.855 85.8516H412.055L407.789 100.986H404.193ZM420.586 85.5781C422.5 85.5781 423.945 86.002 424.92 86.8496C425.904 87.6973 426.396 89.0189 426.396 90.8145V101H424.113L423.498 98.8535H423.389C422.96 99.4004 422.518 99.8516 422.062 100.207C421.607 100.562 421.078 100.827 420.477 101C419.884 101.182 419.16 101.273 418.303 101.273C417.4 101.273 416.594 101.109 415.883 100.781C415.172 100.444 414.611 99.9336 414.201 99.25C413.791 98.5664 413.586 97.7005 413.586 96.6523C413.586 95.0938 414.165 93.9225 415.322 93.1387C416.489 92.3548 418.248 91.9219 420.6 91.8398L423.225 91.7441V90.9512C423.225 89.903 422.979 89.1556 422.486 88.709C422.003 88.2624 421.32 88.0391 420.436 88.0391C419.679 88.0391 418.945 88.1484 418.234 88.3672C417.523 88.5859 416.831 88.8548 416.156 89.1738L415.117 86.9043C415.855 86.5124 416.694 86.1934 417.633 85.9473C418.581 85.7012 419.565 85.5781 420.586 85.5781ZM423.211 93.7676L421.256 93.8359C419.652 93.8906 418.526 94.1641 417.879 94.6562C417.232 95.1484 416.908 95.8229 416.908 96.6797C416.908 97.4271 417.132 97.974 417.578 98.3203C418.025 98.6576 418.613 98.8262 419.342 98.8262C420.454 98.8262 421.374 98.5117 422.104 97.8828C422.842 97.2448 423.211 96.3105 423.211 95.0801V93.7676ZM438.783 85.5781C440.488 85.5781 441.814 86.0202 442.762 86.9043C443.719 87.7793 444.197 89.1875 444.197 91.1289V101H440.984V91.7305C440.984 90.5547 440.743 89.6751 440.26 89.0918C439.777 88.4993 439.029 88.2031 438.018 88.2031C436.55 88.2031 435.529 88.6543 434.955 89.5566C434.39 90.459 434.107 91.7669 434.107 93.4805V101H430.895V85.8652H433.396L433.848 87.916H434.025C434.354 87.3874 434.759 86.9544 435.242 86.6172C435.734 86.2708 436.281 86.0111 436.883 85.8379C437.493 85.6647 438.127 85.5781 438.783 85.5781ZM454.793 101.273C453.362 101.273 452.122 100.995 451.074 100.439C450.026 99.8835 449.219 99.0312 448.654 97.8828C448.089 96.7344 447.807 95.276 447.807 93.5078C447.807 91.6667 448.117 90.1628 448.736 88.9961C449.356 87.8294 450.213 86.9681 451.307 86.4121C452.41 85.8561 453.672 85.5781 455.094 85.5781C455.996 85.5781 456.812 85.6693 457.541 85.8516C458.279 86.0247 458.904 86.2389 459.414 86.4941L458.457 89.0645C457.901 88.8366 457.331 88.6452 456.748 88.4902C456.165 88.3353 455.604 88.2578 455.066 88.2578C454.182 88.2578 453.444 88.4538 452.852 88.8457C452.268 89.2376 451.831 89.821 451.539 90.5957C451.257 91.3704 451.115 92.332 451.115 93.4805C451.115 94.5924 451.261 95.5312 451.553 96.2969C451.844 97.0534 452.277 97.6276 452.852 98.0195C453.426 98.4023 454.132 98.5938 454.971 98.5938C455.8 98.5938 456.543 98.4935 457.199 98.293C457.855 98.0924 458.475 97.8327 459.059 97.5137V100.303C458.484 100.631 457.869 100.872 457.213 101.027C456.557 101.191 455.75 101.273 454.793 101.273ZM468.643 85.5781C469.992 85.5781 471.149 85.8561 472.115 86.4121C473.081 86.9681 473.824 87.7565 474.344 88.7773C474.863 89.7982 475.123 91.0195 475.123 92.4414V94.1641H465.02C465.056 95.6315 465.448 96.7617 466.195 97.5547C466.952 98.3477 468.009 98.7441 469.367 98.7441C470.333 98.7441 471.199 98.653 471.965 98.4707C472.74 98.2793 473.537 98.0013 474.357 97.6367V100.248C473.601 100.604 472.831 100.863 472.047 101.027C471.263 101.191 470.324 101.273 469.23 101.273C467.745 101.273 466.437 100.986 465.307 100.412C464.186 99.8288 463.306 98.9629 462.668 97.8145C462.039 96.666 461.725 95.2396 461.725 93.5352C461.725 91.8398 462.012 90.3997 462.586 89.2148C463.16 88.0299 463.967 87.1276 465.006 86.5078C466.045 85.888 467.257 85.5781 468.643 85.5781ZM468.643 87.998C467.631 87.998 466.811 88.3262 466.182 88.9824C465.562 89.6387 465.197 90.6003 465.088 91.8672H471.979C471.969 91.1107 471.842 90.4408 471.596 89.8574C471.359 89.2741 470.994 88.8184 470.502 88.4902C470.019 88.1621 469.399 87.998 468.643 87.998Z" fill="white"/>
<path d="M33.6484 233H30.3945V213.012H41.6875V215.773H33.6484V222.008H41.168V224.756H33.6484V233ZM58.1895 217.865V233H55.6602L55.2227 230.963H55.0449C54.7259 231.482 54.3203 231.915 53.8281 232.262C53.3359 232.599 52.7891 232.85 52.1875 233.014C51.5859 233.187 50.9525 233.273 50.2871 233.273C49.1478 233.273 48.1725 233.082 47.3613 232.699C46.5592 232.307 45.944 231.706 45.5156 230.895C45.0872 230.083 44.873 229.035 44.873 227.75V217.865H48.0996V227.148C48.0996 228.324 48.3366 229.204 48.8105 229.787C49.2936 230.37 50.041 230.662 51.0527 230.662C52.028 230.662 52.8027 230.462 53.377 230.061C53.9512 229.66 54.3568 229.067 54.5938 228.283C54.8398 227.499 54.9629 226.538 54.9629 225.398V217.865H58.1895ZM66.0234 233H62.7969V211.727H66.0234V233ZM73.8438 233H70.6172V211.727H73.8438V233ZM91.6445 217.578C93.5586 217.578 95.0033 218.002 95.9785 218.85C96.9629 219.697 97.4551 221.019 97.4551 222.814V233H95.1719L94.5566 230.854H94.4473C94.0189 231.4 93.5768 231.852 93.1211 232.207C92.6654 232.562 92.1367 232.827 91.5352 233C90.9427 233.182 90.2181 233.273 89.3613 233.273C88.459 233.273 87.6523 233.109 86.9414 232.781C86.2305 232.444 85.6699 231.934 85.2598 231.25C84.8496 230.566 84.6445 229.701 84.6445 228.652C84.6445 227.094 85.2233 225.923 86.3809 225.139C87.5475 224.355 89.3066 223.922 91.6582 223.84L94.2832 223.744V222.951C94.2832 221.903 94.0371 221.156 93.5449 220.709C93.0618 220.262 92.3783 220.039 91.4941 220.039C90.7376 220.039 90.0039 220.148 89.293 220.367C88.582 220.586 87.8893 220.855 87.2148 221.174L86.1758 218.904C86.9141 218.512 87.7526 218.193 88.6914 217.947C89.6393 217.701 90.6237 217.578 91.6445 217.578ZM94.2695 225.768L92.3145 225.836C90.7103 225.891 89.5846 226.164 88.9375 226.656C88.2904 227.148 87.9668 227.823 87.9668 228.68C87.9668 229.427 88.1901 229.974 88.6367 230.32C89.0833 230.658 89.6712 230.826 90.4004 230.826C91.5124 230.826 92.4329 230.512 93.1621 229.883C93.9004 229.245 94.2695 228.311 94.2695 227.08V225.768ZM115.146 217.865V233H112.617L112.18 230.963H112.002C111.683 231.482 111.277 231.915 110.785 232.262C110.293 232.599 109.746 232.85 109.145 233.014C108.543 233.187 107.91 233.273 107.244 233.273C106.105 233.273 105.13 233.082 104.318 232.699C103.516 232.307 102.901 231.706 102.473 230.895C102.044 230.083 101.83 229.035 101.83 227.75V217.865H105.057V227.148C105.057 228.324 105.294 229.204 105.768 229.787C106.251 230.37 106.998 230.662 108.01 230.662C108.985 230.662 109.76 230.462 110.334 230.061C110.908 229.66 111.314 229.067 111.551 228.283C111.797 227.499 111.92 226.538 111.92 225.398V217.865H115.146ZM125.387 230.676C125.806 230.676 126.221 230.639 126.631 230.566C127.041 230.484 127.415 230.389 127.752 230.279V232.713C127.396 232.868 126.936 233 126.371 233.109C125.806 233.219 125.218 233.273 124.607 233.273C123.751 233.273 122.98 233.132 122.297 232.85C121.613 232.558 121.071 232.061 120.67 231.359C120.269 230.658 120.068 229.687 120.068 228.447V220.312H118.004V218.877L120.219 217.742L121.271 214.502H123.295V217.865H127.629V220.312H123.295V228.406C123.295 229.172 123.486 229.742 123.869 230.115C124.252 230.489 124.758 230.676 125.387 230.676ZM144.227 225.398C144.227 226.656 144.062 227.773 143.734 228.748C143.406 229.723 142.928 230.548 142.299 231.223C141.67 231.888 140.913 232.398 140.029 232.754C139.145 233.1 138.147 233.273 137.035 233.273C135.996 233.273 135.044 233.1 134.178 232.754C133.312 232.398 132.56 231.888 131.922 231.223C131.293 230.548 130.805 229.723 130.459 228.748C130.113 227.773 129.939 226.656 129.939 225.398C129.939 223.73 130.227 222.318 130.801 221.16C131.384 219.993 132.214 219.105 133.289 218.494C134.365 217.883 135.645 217.578 137.131 217.578C138.525 217.578 139.756 217.883 140.822 218.494C141.889 219.105 142.723 219.993 143.324 221.16C143.926 222.327 144.227 223.74 144.227 225.398ZM133.248 225.398C133.248 226.501 133.38 227.445 133.645 228.229C133.918 229.012 134.337 229.614 134.902 230.033C135.467 230.443 136.197 230.648 137.09 230.648C137.983 230.648 138.712 230.443 139.277 230.033C139.842 229.614 140.257 229.012 140.521 228.229C140.786 227.445 140.918 226.501 140.918 225.398C140.918 224.296 140.786 223.361 140.521 222.596C140.257 221.821 139.842 221.233 139.277 220.832C138.712 220.422 137.979 220.217 137.076 220.217C135.745 220.217 134.775 220.663 134.164 221.557C133.553 222.45 133.248 223.73 133.248 225.398ZM165.021 217.578C166.717 217.578 167.993 218.016 168.85 218.891C169.715 219.766 170.148 221.169 170.148 223.102V233H166.936V223.676C166.936 222.527 166.712 221.661 166.266 221.078C165.819 220.495 165.14 220.203 164.229 220.203C162.952 220.203 162.032 220.613 161.467 221.434C160.911 222.245 160.633 223.425 160.633 224.975V233H157.42V223.676C157.42 222.91 157.32 222.272 157.119 221.762C156.928 221.242 156.632 220.855 156.23 220.6C155.829 220.335 155.324 220.203 154.713 220.203C153.829 220.203 153.122 220.404 152.594 220.805C152.074 221.206 151.701 221.798 151.473 222.582C151.245 223.357 151.131 224.309 151.131 225.439V233H147.918V217.865H150.42L150.871 219.902H151.049C151.359 219.374 151.742 218.941 152.197 218.604C152.662 218.257 153.177 218.002 153.742 217.838C154.307 217.665 154.895 217.578 155.506 217.578C156.636 217.578 157.589 217.779 158.363 218.18C159.138 218.572 159.717 219.173 160.1 219.984H160.346C160.82 219.164 161.48 218.558 162.328 218.166C163.176 217.774 164.074 217.578 165.021 217.578ZM180.566 217.578C182.48 217.578 183.925 218.002 184.9 218.85C185.885 219.697 186.377 221.019 186.377 222.814V233H184.094L183.479 230.854H183.369C182.941 231.4 182.499 231.852 182.043 232.207C181.587 232.562 181.059 232.827 180.457 233C179.865 233.182 179.14 233.273 178.283 233.273C177.381 233.273 176.574 233.109 175.863 232.781C175.152 232.444 174.592 231.934 174.182 231.25C173.771 230.566 173.566 229.701 173.566 228.652C173.566 227.094 174.145 225.923 175.303 225.139C176.469 224.355 178.229 223.922 180.58 223.84L183.205 223.744V222.951C183.205 221.903 182.959 221.156 182.467 220.709C181.984 220.262 181.3 220.039 180.416 220.039C179.66 220.039 178.926 220.148 178.215 220.367C177.504 220.586 176.811 220.855 176.137 221.174L175.098 218.904C175.836 218.512 176.674 218.193 177.613 217.947C178.561 217.701 179.546 217.578 180.566 217.578ZM183.191 225.768L181.236 225.836C179.632 225.891 178.507 226.164 177.859 226.656C177.212 227.148 176.889 227.823 176.889 228.68C176.889 229.427 177.112 229.974 177.559 230.32C178.005 230.658 178.593 230.826 179.322 230.826C180.434 230.826 181.355 230.512 182.084 229.883C182.822 229.245 183.191 228.311 183.191 227.08V225.768ZM196.508 230.676C196.927 230.676 197.342 230.639 197.752 230.566C198.162 230.484 198.536 230.389 198.873 230.279V232.713C198.518 232.868 198.057 233 197.492 233.109C196.927 233.219 196.339 233.273 195.729 233.273C194.872 233.273 194.102 233.132 193.418 232.85C192.734 232.558 192.192 232.061 191.791 231.359C191.39 230.658 191.189 229.687 191.189 228.447V220.312H189.125V218.877L191.34 217.742L192.393 214.502H194.416V217.865H198.75V220.312H194.416V228.406C194.416 229.172 194.607 229.742 194.99 230.115C195.373 230.489 195.879 230.676 196.508 230.676ZM207.979 217.578C209.327 217.578 210.485 217.856 211.451 218.412C212.417 218.968 213.16 219.757 213.68 220.777C214.199 221.798 214.459 223.02 214.459 224.441V226.164H204.355C204.392 227.632 204.784 228.762 205.531 229.555C206.288 230.348 207.345 230.744 208.703 230.744C209.669 230.744 210.535 230.653 211.301 230.471C212.076 230.279 212.873 230.001 213.693 229.637V232.248C212.937 232.604 212.167 232.863 211.383 233.027C210.599 233.191 209.66 233.273 208.566 233.273C207.081 233.273 205.773 232.986 204.643 232.412C203.521 231.829 202.642 230.963 202.004 229.814C201.375 228.666 201.061 227.24 201.061 225.535C201.061 223.84 201.348 222.4 201.922 221.215C202.496 220.03 203.303 219.128 204.342 218.508C205.381 217.888 206.593 217.578 207.979 217.578ZM207.979 219.998C206.967 219.998 206.146 220.326 205.518 220.982C204.898 221.639 204.533 222.6 204.424 223.867H211.314C211.305 223.111 211.178 222.441 210.932 221.857C210.695 221.274 210.33 220.818 209.838 220.49C209.355 220.162 208.735 219.998 207.979 219.998ZM223.168 233.273C221.363 233.273 219.914 232.617 218.82 231.305C217.736 229.983 217.193 228.037 217.193 225.467C217.193 222.869 217.745 220.905 218.848 219.574C219.96 218.243 221.423 217.578 223.236 217.578C224.002 217.578 224.672 217.683 225.246 217.893C225.82 218.093 226.312 218.367 226.723 218.713C227.142 219.059 227.497 219.447 227.789 219.875H227.939C227.894 219.592 227.839 219.187 227.775 218.658C227.721 218.12 227.693 217.624 227.693 217.168V211.727H230.92V233H228.404L227.83 230.936H227.693C227.42 231.373 227.074 231.77 226.654 232.125C226.244 232.471 225.752 232.749 225.178 232.959C224.613 233.169 223.943 233.273 223.168 233.273ZM224.07 230.662C225.447 230.662 226.417 230.266 226.982 229.473C227.548 228.68 227.839 227.49 227.857 225.904V225.48C227.857 223.785 227.584 222.486 227.037 221.584C226.49 220.673 225.492 220.217 224.043 220.217C222.885 220.217 222.001 220.686 221.391 221.625C220.789 222.555 220.488 223.854 220.488 225.521C220.488 227.189 220.789 228.465 221.391 229.35C222.001 230.225 222.895 230.662 224.07 230.662ZM45.7754 251.578C46.0306 251.578 46.3086 251.592 46.6094 251.619C46.9102 251.646 47.1699 251.683 47.3887 251.729L47.0879 254.736C46.8965 254.682 46.6595 254.641 46.377 254.613C46.1035 254.586 45.8574 254.572 45.6387 254.572C45.0645 254.572 44.5176 254.668 43.998 254.859C43.4785 255.042 43.0182 255.324 42.6172 255.707C42.2161 256.081 41.9017 256.55 41.6738 257.115C41.446 257.68 41.332 258.337 41.332 259.084V267H38.1055V251.865H40.6211L41.0586 254.531H41.209C41.5098 253.993 41.8835 253.501 42.3301 253.055C42.7767 252.608 43.2871 252.253 43.8613 251.988C44.4447 251.715 45.0827 251.578 45.7754 251.578ZM56.2207 251.578C57.5697 251.578 58.7272 251.856 59.6934 252.412C60.6595 252.968 61.4023 253.757 61.9219 254.777C62.4414 255.798 62.7012 257.02 62.7012 258.441V260.164H52.5977C52.6341 261.632 53.026 262.762 53.7734 263.555C54.5299 264.348 55.5872 264.744 56.9453 264.744C57.9115 264.744 58.7773 264.653 59.543 264.471C60.3177 264.279 61.1152 264.001 61.9355 263.637V266.248C61.179 266.604 60.4089 266.863 59.625 267.027C58.8411 267.191 57.9023 267.273 56.8086 267.273C55.3229 267.273 54.015 266.986 52.8848 266.412C51.7637 265.829 50.8841 264.963 50.2461 263.814C49.6172 262.666 49.3027 261.24 49.3027 259.535C49.3027 257.84 49.5898 256.4 50.1641 255.215C50.7383 254.03 51.5449 253.128 52.584 252.508C53.623 251.888 54.8353 251.578 56.2207 251.578ZM56.2207 253.998C55.209 253.998 54.3887 254.326 53.7598 254.982C53.14 255.639 52.7754 256.6 52.666 257.867H59.5566C59.5475 257.111 59.4199 256.441 59.1738 255.857C58.9368 255.274 58.5723 254.818 58.0801 254.49C57.597 254.162 56.9772 253.998 56.2207 253.998ZM74.0898 251.578C75.8854 251.578 77.3255 252.234 78.4102 253.547C79.5039 254.859 80.0508 256.81 80.0508 259.398C80.0508 261.112 79.7956 262.557 79.2852 263.732C78.7839 264.899 78.0775 265.783 77.166 266.385C76.2637 266.977 75.2109 267.273 74.0078 267.273C73.2422 267.273 72.5768 267.173 72.0117 266.973C71.4466 266.772 70.9635 266.512 70.5625 266.193C70.1615 265.865 69.8242 265.51 69.5508 265.127H69.3594C69.4049 265.492 69.446 265.897 69.4824 266.344C69.528 266.781 69.5508 267.182 69.5508 267.547V273.713H66.3242V251.865H68.9492L69.4004 253.957H69.5508C69.8333 253.529 70.1751 253.132 70.5762 252.768C70.9863 252.403 71.4785 252.116 72.0527 251.906C72.6361 251.688 73.3151 251.578 74.0898 251.578ZM73.2285 254.203C72.3444 254.203 71.6335 254.381 71.0957 254.736C70.5671 255.083 70.1797 255.607 69.9336 256.309C69.6966 257.01 69.569 257.89 69.5508 258.947V259.398C69.5508 260.52 69.6647 261.472 69.8926 262.256C70.1296 263.031 70.5169 263.623 71.0547 264.033C71.6016 264.434 72.3398 264.635 73.2695 264.635C74.0534 264.635 74.7005 264.421 75.2109 263.992C75.7305 263.564 76.1178 262.953 76.373 262.16C76.6283 261.367 76.7559 260.433 76.7559 259.357C76.7559 257.726 76.4642 256.459 75.8809 255.557C75.3066 254.654 74.4225 254.203 73.2285 254.203ZM97.168 259.398C97.168 260.656 97.0039 261.773 96.6758 262.748C96.3477 263.723 95.8691 264.548 95.2402 265.223C94.6113 265.888 93.8548 266.398 92.9707 266.754C92.0866 267.1 91.0885 267.273 89.9766 267.273C88.9375 267.273 87.985 267.1 87.1191 266.754C86.2533 266.398 85.5013 265.888 84.8633 265.223C84.2344 264.548 83.7467 263.723 83.4004 262.748C83.054 261.773 82.8809 260.656 82.8809 259.398C82.8809 257.73 83.168 256.318 83.7422 255.16C84.3255 253.993 85.1549 253.105 86.2305 252.494C87.306 251.883 88.5866 251.578 90.0723 251.578C91.4668 251.578 92.6973 251.883 93.7637 252.494C94.8301 253.105 95.6641 253.993 96.2656 255.16C96.8672 256.327 97.168 257.74 97.168 259.398ZM86.1895 259.398C86.1895 260.501 86.3216 261.445 86.5859 262.229C86.8594 263.012 87.2786 263.614 87.8438 264.033C88.4089 264.443 89.138 264.648 90.0312 264.648C90.9245 264.648 91.6536 264.443 92.2188 264.033C92.7839 263.614 93.1986 263.012 93.4629 262.229C93.7272 261.445 93.8594 260.501 93.8594 259.398C93.8594 258.296 93.7272 257.361 93.4629 256.596C93.1986 255.821 92.7839 255.233 92.2188 254.832C91.6536 254.422 90.9199 254.217 90.0176 254.217C88.6868 254.217 87.7161 254.663 87.1055 255.557C86.4948 256.45 86.1895 257.73 86.1895 259.398ZM108.529 251.578C108.785 251.578 109.062 251.592 109.363 251.619C109.664 251.646 109.924 251.683 110.143 251.729L109.842 254.736C109.65 254.682 109.413 254.641 109.131 254.613C108.857 254.586 108.611 254.572 108.393 254.572C107.818 254.572 107.271 254.668 106.752 254.859C106.232 255.042 105.772 255.324 105.371 255.707C104.97 256.081 104.656 256.55 104.428 257.115C104.2 257.68 104.086 258.337 104.086 259.084V267H100.859V251.865H103.375L103.812 254.531H103.963C104.264 253.993 104.637 253.501 105.084 253.055C105.531 252.608 106.041 252.253 106.615 251.988C107.199 251.715 107.837 251.578 108.529 251.578ZM118.578 264.676C118.997 264.676 119.412 264.639 119.822 264.566C120.232 264.484 120.606 264.389 120.943 264.279V266.713C120.588 266.868 120.128 267 119.562 267.109C118.997 267.219 118.41 267.273 117.799 267.273C116.942 267.273 116.172 267.132 115.488 266.85C114.805 266.558 114.262 266.061 113.861 265.359C113.46 264.658 113.26 263.687 113.26 262.447V254.312H111.195V252.877L113.41 251.742L114.463 248.502H116.486V251.865H120.82V254.312H116.486V262.406C116.486 263.172 116.678 263.742 117.061 264.115C117.443 264.489 117.949 264.676 118.578 264.676ZM141.465 262.68C141.465 263.673 141.223 264.512 140.74 265.195C140.257 265.879 139.551 266.398 138.621 266.754C137.701 267.1 136.57 267.273 135.23 267.273C134.173 267.273 133.262 267.196 132.496 267.041C131.74 266.895 131.024 266.667 130.35 266.357V263.582C131.07 263.919 131.876 264.211 132.77 264.457C133.672 264.703 134.524 264.826 135.326 264.826C136.383 264.826 137.145 264.662 137.609 264.334C138.074 263.997 138.307 263.55 138.307 262.994C138.307 262.666 138.211 262.374 138.02 262.119C137.837 261.855 137.491 261.586 136.98 261.312C136.479 261.03 135.741 260.693 134.766 260.301C133.809 259.918 133.002 259.535 132.346 259.152C131.689 258.77 131.193 258.309 130.855 257.771C130.518 257.225 130.35 256.527 130.35 255.68C130.35 254.34 130.878 253.324 131.936 252.631C133.002 251.929 134.41 251.578 136.16 251.578C137.09 251.578 137.965 251.674 138.785 251.865C139.615 252.048 140.426 252.316 141.219 252.672L140.207 255.092C139.523 254.791 138.835 254.545 138.143 254.354C137.459 254.153 136.762 254.053 136.051 254.053C135.221 254.053 134.588 254.18 134.15 254.436C133.722 254.691 133.508 255.055 133.508 255.529C133.508 255.885 133.613 256.186 133.822 256.432C134.032 256.678 134.392 256.924 134.902 257.17C135.422 257.416 136.142 257.721 137.062 258.086C137.965 258.432 138.744 258.797 139.4 259.18C140.066 259.553 140.576 260.014 140.932 260.561C141.287 261.107 141.465 261.814 141.465 262.68ZM142.654 251.865H146.154L149.258 260.506C149.395 260.898 149.518 261.285 149.627 261.668C149.745 262.042 149.846 262.411 149.928 262.775C150.019 263.14 150.092 263.505 150.146 263.869H150.229C150.32 263.395 150.447 262.867 150.611 262.283C150.785 261.691 150.976 261.098 151.186 260.506L154.166 251.865H157.625L151.131 269.078C150.757 270.062 150.297 270.901 149.75 271.594C149.212 272.296 148.574 272.824 147.836 273.18C147.098 273.544 146.255 273.727 145.307 273.727C144.851 273.727 144.454 273.699 144.117 273.645C143.78 273.599 143.493 273.549 143.256 273.494V270.924C143.447 270.969 143.689 271.01 143.98 271.047C144.272 271.083 144.573 271.102 144.883 271.102C145.457 271.102 145.954 270.988 146.373 270.76C146.792 270.532 147.148 270.208 147.439 269.789C147.731 269.379 147.973 268.91 148.164 268.381L148.697 266.959L142.654 251.865ZM170.094 262.68C170.094 263.673 169.852 264.512 169.369 265.195C168.886 265.879 168.18 266.398 167.25 266.754C166.329 267.1 165.199 267.273 163.859 267.273C162.802 267.273 161.891 267.196 161.125 267.041C160.368 266.895 159.653 266.667 158.979 266.357V263.582C159.699 263.919 160.505 264.211 161.398 264.457C162.301 264.703 163.153 264.826 163.955 264.826C165.012 264.826 165.773 264.662 166.238 264.334C166.703 263.997 166.936 263.55 166.936 262.994C166.936 262.666 166.84 262.374 166.648 262.119C166.466 261.855 166.12 261.586 165.609 261.312C165.108 261.03 164.37 260.693 163.395 260.301C162.438 259.918 161.631 259.535 160.975 259.152C160.318 258.77 159.822 258.309 159.484 257.771C159.147 257.225 158.979 256.527 158.979 255.68C158.979 254.34 159.507 253.324 160.564 252.631C161.631 251.929 163.039 251.578 164.789 251.578C165.719 251.578 166.594 251.674 167.414 251.865C168.243 252.048 169.055 252.316 169.848 252.672L168.836 255.092C168.152 254.791 167.464 254.545 166.771 254.354C166.088 254.153 165.391 254.053 164.68 254.053C163.85 254.053 163.217 254.18 162.779 254.436C162.351 254.691 162.137 255.055 162.137 255.529C162.137 255.885 162.242 256.186 162.451 256.432C162.661 256.678 163.021 256.924 163.531 257.17C164.051 257.416 164.771 257.721 165.691 258.086C166.594 258.432 167.373 258.797 168.029 259.18C168.695 259.553 169.205 260.014 169.561 260.561C169.916 261.107 170.094 261.814 170.094 262.68ZM179.199 264.676C179.618 264.676 180.033 264.639 180.443 264.566C180.854 264.484 181.227 264.389 181.564 264.279V266.713C181.209 266.868 180.749 267 180.184 267.109C179.618 267.219 179.031 267.273 178.42 267.273C177.563 267.273 176.793 267.132 176.109 266.85C175.426 266.558 174.883 266.061 174.482 265.359C174.081 264.658 173.881 263.687 173.881 262.447V254.312H171.816V252.877L174.031 251.742L175.084 248.502H177.107V251.865H181.441V254.312H177.107V262.406C177.107 263.172 177.299 263.742 177.682 264.115C178.064 264.489 178.57 264.676 179.199 264.676ZM190.67 251.578C192.019 251.578 193.176 251.856 194.143 252.412C195.109 252.968 195.852 253.757 196.371 254.777C196.891 255.798 197.15 257.02 197.15 258.441V260.164H187.047C187.083 261.632 187.475 262.762 188.223 263.555C188.979 264.348 190.036 264.744 191.395 264.744C192.361 264.744 193.227 264.653 193.992 264.471C194.767 264.279 195.564 264.001 196.385 263.637V266.248C195.628 266.604 194.858 266.863 194.074 267.027C193.29 267.191 192.352 267.273 191.258 267.273C189.772 267.273 188.464 266.986 187.334 266.412C186.213 265.829 185.333 264.963 184.695 263.814C184.066 262.666 183.752 261.24 183.752 259.535C183.752 257.84 184.039 256.4 184.613 255.215C185.188 254.03 185.994 253.128 187.033 252.508C188.072 251.888 189.285 251.578 190.67 251.578ZM190.67 253.998C189.658 253.998 188.838 254.326 188.209 254.982C187.589 255.639 187.225 256.6 187.115 257.867H194.006C193.997 257.111 193.869 256.441 193.623 255.857C193.386 255.274 193.021 254.818 192.529 254.49C192.046 254.162 191.426 253.998 190.67 253.998ZM217.877 251.578C219.572 251.578 220.848 252.016 221.705 252.891C222.571 253.766 223.004 255.169 223.004 257.102V267H219.791V257.676C219.791 256.527 219.568 255.661 219.121 255.078C218.674 254.495 217.995 254.203 217.084 254.203C215.808 254.203 214.887 254.613 214.322 255.434C213.766 256.245 213.488 257.425 213.488 258.975V267H210.275V257.676C210.275 256.91 210.175 256.272 209.975 255.762C209.783 255.242 209.487 254.855 209.086 254.6C208.685 254.335 208.179 254.203 207.568 254.203C206.684 254.203 205.978 254.404 205.449 254.805C204.93 255.206 204.556 255.798 204.328 256.582C204.1 257.357 203.986 258.309 203.986 259.439V267H200.773V251.865H203.275L203.727 253.902H203.904C204.214 253.374 204.597 252.941 205.053 252.604C205.518 252.257 206.033 252.002 206.598 251.838C207.163 251.665 207.751 251.578 208.361 251.578C209.492 251.578 210.444 251.779 211.219 252.18C211.993 252.572 212.572 253.173 212.955 253.984H213.201C213.675 253.164 214.336 252.558 215.184 252.166C216.031 251.774 216.929 251.578 217.877 251.578Z" fill="#222C47"/>
<path d="M108.008 547.514C107.051 547.514 106.194 547.687 105.438 548.033C104.69 548.38 104.057 548.881 103.537 549.537C103.018 550.184 102.621 550.973 102.348 551.902C102.074 552.823 101.938 553.862 101.938 555.02C101.938 556.569 102.156 557.904 102.594 559.025C103.031 560.137 103.697 560.994 104.59 561.596C105.483 562.188 106.613 562.484 107.98 562.484C108.828 562.484 109.653 562.402 110.455 562.238C111.257 562.074 112.087 561.851 112.943 561.568V564.357C112.132 564.676 111.312 564.909 110.482 565.055C109.653 565.201 108.696 565.273 107.611 565.273C105.57 565.273 103.874 564.85 102.525 564.002C101.186 563.154 100.183 561.96 99.5176 560.42C98.8613 558.88 98.5332 557.075 98.5332 555.006C98.5332 553.493 98.7428 552.107 99.1621 550.85C99.5814 549.592 100.192 548.507 100.994 547.596C101.796 546.675 102.785 545.969 103.961 545.477C105.146 544.975 106.499 544.725 108.021 544.725C109.024 544.725 110.008 544.839 110.975 545.066C111.95 545.285 112.852 545.6 113.682 546.01L112.533 548.717C111.84 548.389 111.116 548.106 110.359 547.869C109.603 547.632 108.819 547.514 108.008 547.514ZM130.307 557.398C130.307 558.656 130.143 559.773 129.814 560.748C129.486 561.723 129.008 562.548 128.379 563.223C127.75 563.888 126.993 564.398 126.109 564.754C125.225 565.1 124.227 565.273 123.115 565.273C122.076 565.273 121.124 565.1 120.258 564.754C119.392 564.398 118.64 563.888 118.002 563.223C117.373 562.548 116.885 561.723 116.539 560.748C116.193 559.773 116.02 558.656 116.02 557.398C116.02 555.73 116.307 554.318 116.881 553.16C117.464 551.993 118.294 551.105 119.369 550.494C120.445 549.883 121.725 549.578 123.211 549.578C124.605 549.578 125.836 549.883 126.902 550.494C127.969 551.105 128.803 551.993 129.404 553.16C130.006 554.327 130.307 555.74 130.307 557.398ZM119.328 557.398C119.328 558.501 119.46 559.445 119.725 560.229C119.998 561.012 120.417 561.614 120.982 562.033C121.548 562.443 122.277 562.648 123.17 562.648C124.063 562.648 124.792 562.443 125.357 562.033C125.923 561.614 126.337 561.012 126.602 560.229C126.866 559.445 126.998 558.501 126.998 557.398C126.998 556.296 126.866 555.361 126.602 554.596C126.337 553.821 125.923 553.233 125.357 552.832C124.792 552.422 124.059 552.217 123.156 552.217C121.826 552.217 120.855 552.663 120.244 553.557C119.633 554.45 119.328 555.73 119.328 557.398ZM144.17 560.68C144.17 561.673 143.928 562.512 143.445 563.195C142.962 563.879 142.256 564.398 141.326 564.754C140.406 565.1 139.275 565.273 137.936 565.273C136.878 565.273 135.967 565.196 135.201 565.041C134.445 564.895 133.729 564.667 133.055 564.357V561.582C133.775 561.919 134.581 562.211 135.475 562.457C136.377 562.703 137.229 562.826 138.031 562.826C139.089 562.826 139.85 562.662 140.314 562.334C140.779 561.997 141.012 561.55 141.012 560.994C141.012 560.666 140.916 560.374 140.725 560.119C140.542 559.855 140.196 559.586 139.686 559.312C139.184 559.03 138.446 558.693 137.471 558.301C136.514 557.918 135.707 557.535 135.051 557.152C134.395 556.77 133.898 556.309 133.561 555.771C133.223 555.225 133.055 554.527 133.055 553.68C133.055 552.34 133.583 551.324 134.641 550.631C135.707 549.929 137.115 549.578 138.865 549.578C139.795 549.578 140.67 549.674 141.49 549.865C142.32 550.048 143.131 550.316 143.924 550.672L142.912 553.092C142.229 552.791 141.54 552.545 140.848 552.354C140.164 552.153 139.467 552.053 138.756 552.053C137.926 552.053 137.293 552.18 136.855 552.436C136.427 552.691 136.213 553.055 136.213 553.529C136.213 553.885 136.318 554.186 136.527 554.432C136.737 554.678 137.097 554.924 137.607 555.17C138.127 555.416 138.847 555.721 139.768 556.086C140.67 556.432 141.449 556.797 142.105 557.18C142.771 557.553 143.281 558.014 143.637 558.561C143.992 559.107 144.17 559.814 144.17 560.68ZM153.275 562.676C153.695 562.676 154.109 562.639 154.52 562.566C154.93 562.484 155.303 562.389 155.641 562.279V564.713C155.285 564.868 154.825 565 154.26 565.109C153.695 565.219 153.107 565.273 152.496 565.273C151.639 565.273 150.869 565.132 150.186 564.85C149.502 564.558 148.96 564.061 148.559 563.359C148.158 562.658 147.957 561.687 147.957 560.447V552.312H145.893V550.877L148.107 549.742L149.16 546.502H151.184V549.865H155.518V552.312H151.184V560.406C151.184 561.172 151.375 561.742 151.758 562.115C152.141 562.489 152.646 562.676 153.275 562.676ZM173.66 549.578C173.915 549.578 174.193 549.592 174.494 549.619C174.795 549.646 175.055 549.683 175.273 549.729L174.973 552.736C174.781 552.682 174.544 552.641 174.262 552.613C173.988 552.586 173.742 552.572 173.523 552.572C172.949 552.572 172.402 552.668 171.883 552.859C171.363 553.042 170.903 553.324 170.502 553.707C170.101 554.081 169.786 554.55 169.559 555.115C169.331 555.68 169.217 556.337 169.217 557.084V565H165.99V549.865H168.506L168.943 552.531H169.094C169.395 551.993 169.768 551.501 170.215 551.055C170.661 550.608 171.172 550.253 171.746 549.988C172.329 549.715 172.967 549.578 173.66 549.578ZM184.105 549.578C185.454 549.578 186.612 549.856 187.578 550.412C188.544 550.968 189.287 551.757 189.807 552.777C190.326 553.798 190.586 555.02 190.586 556.441V558.164H180.482C180.519 559.632 180.911 560.762 181.658 561.555C182.415 562.348 183.472 562.744 184.83 562.744C185.796 562.744 186.662 562.653 187.428 562.471C188.202 562.279 189 562.001 189.82 561.637V564.248C189.064 564.604 188.294 564.863 187.51 565.027C186.726 565.191 185.787 565.273 184.693 565.273C183.208 565.273 181.9 564.986 180.77 564.412C179.648 563.829 178.769 562.963 178.131 561.814C177.502 560.666 177.188 559.24 177.188 557.535C177.188 555.84 177.475 554.4 178.049 553.215C178.623 552.03 179.43 551.128 180.469 550.508C181.508 549.888 182.72 549.578 184.105 549.578ZM184.105 551.998C183.094 551.998 182.273 552.326 181.645 552.982C181.025 553.639 180.66 554.6 180.551 555.867H187.441C187.432 555.111 187.305 554.441 187.059 553.857C186.822 553.274 186.457 552.818 185.965 552.49C185.482 552.162 184.862 551.998 184.105 551.998ZM199.295 565.273C197.49 565.273 196.041 564.617 194.947 563.305C193.863 561.983 193.32 560.037 193.32 557.467C193.32 554.869 193.872 552.905 194.975 551.574C196.087 550.243 197.549 549.578 199.363 549.578C200.129 549.578 200.799 549.683 201.373 549.893C201.947 550.093 202.439 550.367 202.85 550.713C203.269 551.059 203.624 551.447 203.916 551.875H204.066C204.021 551.592 203.966 551.187 203.902 550.658C203.848 550.12 203.82 549.624 203.82 549.168V543.727H207.047V565H204.531L203.957 562.936H203.82C203.547 563.373 203.201 563.77 202.781 564.125C202.371 564.471 201.879 564.749 201.305 564.959C200.74 565.169 200.07 565.273 199.295 565.273ZM200.197 562.662C201.574 562.662 202.544 562.266 203.109 561.473C203.674 560.68 203.966 559.49 203.984 557.904V557.48C203.984 555.785 203.711 554.486 203.164 553.584C202.617 552.673 201.619 552.217 200.17 552.217C199.012 552.217 198.128 552.686 197.518 553.625C196.916 554.555 196.615 555.854 196.615 557.521C196.615 559.189 196.916 560.465 197.518 561.35C198.128 562.225 199.021 562.662 200.197 562.662ZM224.848 549.865V565H222.318L221.881 562.963H221.703C221.384 563.482 220.979 563.915 220.486 564.262C219.994 564.599 219.447 564.85 218.846 565.014C218.244 565.187 217.611 565.273 216.945 565.273C215.806 565.273 214.831 565.082 214.02 564.699C213.217 564.307 212.602 563.706 212.174 562.895C211.745 562.083 211.531 561.035 211.531 559.75V549.865H214.758V559.148C214.758 560.324 214.995 561.204 215.469 561.787C215.952 562.37 216.699 562.662 217.711 562.662C218.686 562.662 219.461 562.462 220.035 562.061C220.609 561.66 221.015 561.067 221.252 560.283C221.498 559.499 221.621 558.538 221.621 557.398V549.865H224.848ZM235.553 565.273C234.122 565.273 232.882 564.995 231.834 564.439C230.786 563.883 229.979 563.031 229.414 561.883C228.849 560.734 228.566 559.276 228.566 557.508C228.566 555.667 228.876 554.163 229.496 552.996C230.116 551.829 230.973 550.968 232.066 550.412C233.169 549.856 234.432 549.578 235.854 549.578C236.756 549.578 237.572 549.669 238.301 549.852C239.039 550.025 239.663 550.239 240.174 550.494L239.217 553.064C238.661 552.837 238.091 552.645 237.508 552.49C236.924 552.335 236.364 552.258 235.826 552.258C234.942 552.258 234.204 552.454 233.611 552.846C233.028 553.238 232.59 553.821 232.299 554.596C232.016 555.37 231.875 556.332 231.875 557.48C231.875 558.592 232.021 559.531 232.312 560.297C232.604 561.053 233.037 561.628 233.611 562.02C234.186 562.402 234.892 562.594 235.73 562.594C236.56 562.594 237.303 562.493 237.959 562.293C238.615 562.092 239.235 561.833 239.818 561.514V564.303C239.244 564.631 238.629 564.872 237.973 565.027C237.316 565.191 236.51 565.273 235.553 565.273ZM249.006 562.676C249.425 562.676 249.84 562.639 250.25 562.566C250.66 562.484 251.034 562.389 251.371 562.279V564.713C251.016 564.868 250.555 565 249.99 565.109C249.425 565.219 248.837 565.273 248.227 565.273C247.37 565.273 246.6 565.132 245.916 564.85C245.232 564.558 244.69 564.061 244.289 563.359C243.888 562.658 243.688 561.687 243.688 560.447V552.312H241.623V550.877L243.838 549.742L244.891 546.502H246.914V549.865H251.248V552.312H246.914V560.406C246.914 561.172 247.105 561.742 247.488 562.115C247.871 562.489 248.377 562.676 249.006 562.676ZM257.66 549.865V565H254.447V549.865H257.66ZM256.074 544.068C256.566 544.068 256.99 544.201 257.346 544.465C257.71 544.729 257.893 545.185 257.893 545.832C257.893 546.47 257.71 546.926 257.346 547.199C256.99 547.464 256.566 547.596 256.074 547.596C255.564 547.596 255.131 547.464 254.775 547.199C254.429 546.926 254.256 546.47 254.256 545.832C254.256 545.185 254.429 544.729 254.775 544.465C255.131 544.201 255.564 544.068 256.074 544.068ZM275.666 557.398C275.666 558.656 275.502 559.773 275.174 560.748C274.846 561.723 274.367 562.548 273.738 563.223C273.109 563.888 272.353 564.398 271.469 564.754C270.585 565.1 269.587 565.273 268.475 565.273C267.436 565.273 266.483 565.1 265.617 564.754C264.751 564.398 263.999 563.888 263.361 563.223C262.732 562.548 262.245 561.723 261.898 560.748C261.552 559.773 261.379 558.656 261.379 557.398C261.379 555.73 261.666 554.318 262.24 553.16C262.824 551.993 263.653 551.105 264.729 550.494C265.804 549.883 267.085 549.578 268.57 549.578C269.965 549.578 271.195 549.883 272.262 550.494C273.328 551.105 274.162 551.993 274.764 553.16C275.365 554.327 275.666 555.74 275.666 557.398ZM264.688 557.398C264.688 558.501 264.82 559.445 265.084 560.229C265.357 561.012 265.777 561.614 266.342 562.033C266.907 562.443 267.636 562.648 268.529 562.648C269.423 562.648 270.152 562.443 270.717 562.033C271.282 561.614 271.697 561.012 271.961 560.229C272.225 559.445 272.357 558.501 272.357 557.398C272.357 556.296 272.225 555.361 271.961 554.596C271.697 553.821 271.282 553.233 270.717 552.832C270.152 552.422 269.418 552.217 268.516 552.217C267.185 552.217 266.214 552.663 265.604 553.557C264.993 554.45 264.688 555.73 264.688 557.398ZM287.246 549.578C288.951 549.578 290.277 550.02 291.225 550.904C292.182 551.779 292.66 553.188 292.66 555.129V565H289.447V555.73C289.447 554.555 289.206 553.675 288.723 553.092C288.24 552.499 287.492 552.203 286.48 552.203C285.013 552.203 283.992 552.654 283.418 553.557C282.853 554.459 282.57 555.767 282.57 557.48V565H279.357V549.865H281.859L282.311 551.916H282.488C282.816 551.387 283.222 550.954 283.705 550.617C284.197 550.271 284.744 550.011 285.346 549.838C285.956 549.665 286.59 549.578 287.246 549.578ZM101.035 591.398C101.035 592.656 100.871 593.773 100.543 594.748C100.215 595.723 99.7363 596.548 99.1074 597.223C98.4785 597.888 97.722 598.398 96.8379 598.754C95.9538 599.1 94.9557 599.273 93.8438 599.273C92.8047 599.273 91.8522 599.1 90.9863 598.754C90.1204 598.398 89.3685 597.888 88.7305 597.223C88.1016 596.548 87.6139 595.723 87.2676 594.748C86.9212 593.773 86.748 592.656 86.748 591.398C86.748 589.73 87.0352 588.318 87.6094 587.16C88.1927 585.993 89.0221 585.105 90.0977 584.494C91.1732 583.883 92.4538 583.578 93.9395 583.578C95.334 583.578 96.5645 583.883 97.6309 584.494C98.6973 585.105 99.5312 585.993 100.133 587.16C100.734 588.327 101.035 589.74 101.035 591.398ZM90.0566 591.398C90.0566 592.501 90.1888 593.445 90.4531 594.229C90.7266 595.012 91.1458 595.614 91.7109 596.033C92.276 596.443 93.0052 596.648 93.8984 596.648C94.7917 596.648 95.5208 596.443 96.0859 596.033C96.651 595.614 97.0658 595.012 97.3301 594.229C97.5944 593.445 97.7266 592.501 97.7266 591.398C97.7266 590.296 97.5944 589.361 97.3301 588.596C97.0658 587.821 96.651 587.233 96.0859 586.832C95.5208 586.422 94.7871 586.217 93.8848 586.217C92.554 586.217 91.5833 586.663 90.9727 587.557C90.362 588.45 90.0566 589.73 90.0566 591.398ZM112.287 586.312H108.609V599H105.396V586.312H102.922V584.768L105.396 583.824V582.771C105.396 581.486 105.597 580.465 105.998 579.709C106.408 578.952 106.992 578.41 107.748 578.082C108.514 577.745 109.425 577.576 110.482 577.576C111.175 577.576 111.809 577.635 112.383 577.754C112.957 577.863 113.44 577.991 113.832 578.137L112.998 580.57C112.688 580.47 112.342 580.379 111.959 580.297C111.576 580.206 111.166 580.16 110.729 580.16C109.999 580.16 109.462 580.388 109.115 580.844C108.778 581.299 108.609 581.965 108.609 582.84V583.865H112.287V586.312ZM122.473 599V579.012H125.754V599H122.473ZM137.963 599H134.668V581.801H128.816V579.012H143.801V581.801H137.963V599ZM158.895 599.273C157.09 599.273 155.641 598.617 154.547 597.305C153.462 595.983 152.92 594.037 152.92 591.467C152.92 588.869 153.471 586.905 154.574 585.574C155.686 584.243 157.149 583.578 158.963 583.578C159.729 583.578 160.398 583.683 160.973 583.893C161.547 584.093 162.039 584.367 162.449 584.713C162.868 585.059 163.224 585.447 163.516 585.875H163.666C163.62 585.592 163.566 585.187 163.502 584.658C163.447 584.12 163.42 583.624 163.42 583.168V577.727H166.646V599H164.131L163.557 596.936H163.42C163.146 597.373 162.8 597.77 162.381 598.125C161.971 598.471 161.479 598.749 160.904 598.959C160.339 599.169 159.669 599.273 158.895 599.273ZM159.797 596.662C161.173 596.662 162.144 596.266 162.709 595.473C163.274 594.68 163.566 593.49 163.584 591.904V591.48C163.584 589.785 163.311 588.486 162.764 587.584C162.217 586.673 161.219 586.217 159.77 586.217C158.612 586.217 157.728 586.686 157.117 587.625C156.516 588.555 156.215 589.854 156.215 591.521C156.215 593.189 156.516 594.465 157.117 595.35C157.728 596.225 158.621 596.662 159.797 596.662ZM177.283 583.578C178.632 583.578 179.79 583.856 180.756 584.412C181.722 584.968 182.465 585.757 182.984 586.777C183.504 587.798 183.764 589.02 183.764 590.441V592.164H173.66C173.697 593.632 174.089 594.762 174.836 595.555C175.592 596.348 176.65 596.744 178.008 596.744C178.974 596.744 179.84 596.653 180.605 596.471C181.38 596.279 182.178 596.001 182.998 595.637V598.248C182.242 598.604 181.471 598.863 180.688 599.027C179.904 599.191 178.965 599.273 177.871 599.273C176.385 599.273 175.077 598.986 173.947 598.412C172.826 597.829 171.947 596.963 171.309 595.814C170.68 594.666 170.365 593.24 170.365 591.535C170.365 589.84 170.652 588.4 171.227 587.215C171.801 586.03 172.607 585.128 173.646 584.508C174.686 583.888 175.898 583.578 177.283 583.578ZM177.283 585.998C176.271 585.998 175.451 586.326 174.822 586.982C174.202 587.639 173.838 588.6 173.729 589.867H180.619C180.61 589.111 180.482 588.441 180.236 587.857C179.999 587.274 179.635 586.818 179.143 586.49C178.66 586.162 178.04 585.998 177.283 585.998ZM195.152 583.578C196.948 583.578 198.388 584.234 199.473 585.547C200.566 586.859 201.113 588.81 201.113 591.398C201.113 593.112 200.858 594.557 200.348 595.732C199.846 596.899 199.14 597.783 198.229 598.385C197.326 598.977 196.273 599.273 195.07 599.273C194.305 599.273 193.639 599.173 193.074 598.973C192.509 598.772 192.026 598.512 191.625 598.193C191.224 597.865 190.887 597.51 190.613 597.127H190.422C190.467 597.492 190.508 597.897 190.545 598.344C190.59 598.781 190.613 599.182 190.613 599.547V605.713H187.387V583.865H190.012L190.463 585.957H190.613C190.896 585.529 191.238 585.132 191.639 584.768C192.049 584.403 192.541 584.116 193.115 583.906C193.699 583.688 194.378 583.578 195.152 583.578ZM194.291 586.203C193.407 586.203 192.696 586.381 192.158 586.736C191.63 587.083 191.242 587.607 190.996 588.309C190.759 589.01 190.632 589.89 190.613 590.947V591.398C190.613 592.52 190.727 593.472 190.955 594.256C191.192 595.031 191.579 595.623 192.117 596.033C192.664 596.434 193.402 596.635 194.332 596.635C195.116 596.635 195.763 596.421 196.273 595.992C196.793 595.564 197.18 594.953 197.436 594.16C197.691 593.367 197.818 592.433 197.818 591.357C197.818 589.726 197.527 588.459 196.943 587.557C196.369 586.654 195.485 586.203 194.291 586.203ZM210.766 583.578C212.68 583.578 214.124 584.002 215.1 584.85C216.084 585.697 216.576 587.019 216.576 588.814V599H214.293L213.678 596.854H213.568C213.14 597.4 212.698 597.852 212.242 598.207C211.786 598.562 211.258 598.827 210.656 599C210.064 599.182 209.339 599.273 208.482 599.273C207.58 599.273 206.773 599.109 206.062 598.781C205.352 598.444 204.791 597.934 204.381 597.25C203.971 596.566 203.766 595.701 203.766 594.652C203.766 593.094 204.344 591.923 205.502 591.139C206.669 590.355 208.428 589.922 210.779 589.84L213.404 589.744V588.951C213.404 587.903 213.158 587.156 212.666 586.709C212.183 586.262 211.499 586.039 210.615 586.039C209.859 586.039 209.125 586.148 208.414 586.367C207.703 586.586 207.01 586.855 206.336 587.174L205.297 584.904C206.035 584.512 206.874 584.193 207.812 583.947C208.76 583.701 209.745 583.578 210.766 583.578ZM213.391 591.768L211.436 591.836C209.831 591.891 208.706 592.164 208.059 592.656C207.411 593.148 207.088 593.823 207.088 594.68C207.088 595.427 207.311 595.974 207.758 596.32C208.204 596.658 208.792 596.826 209.521 596.826C210.633 596.826 211.554 596.512 212.283 595.883C213.021 595.245 213.391 594.311 213.391 593.08V591.768ZM228.744 583.578C228.999 583.578 229.277 583.592 229.578 583.619C229.879 583.646 230.139 583.683 230.357 583.729L230.057 586.736C229.865 586.682 229.628 586.641 229.346 586.613C229.072 586.586 228.826 586.572 228.607 586.572C228.033 586.572 227.486 586.668 226.967 586.859C226.447 587.042 225.987 587.324 225.586 587.707C225.185 588.081 224.87 588.55 224.643 589.115C224.415 589.68 224.301 590.337 224.301 591.084V599H221.074V583.865H223.59L224.027 586.531H224.178C224.479 585.993 224.852 585.501 225.299 585.055C225.745 584.608 226.256 584.253 226.83 583.988C227.413 583.715 228.051 583.578 228.744 583.578ZM238.793 596.676C239.212 596.676 239.627 596.639 240.037 596.566C240.447 596.484 240.821 596.389 241.158 596.279V598.713C240.803 598.868 240.342 599 239.777 599.109C239.212 599.219 238.624 599.273 238.014 599.273C237.157 599.273 236.387 599.132 235.703 598.85C235.02 598.558 234.477 598.061 234.076 597.359C233.675 596.658 233.475 595.687 233.475 594.447V586.312H231.41V584.877L233.625 583.742L234.678 580.502H236.701V583.865H241.035V586.312H236.701V594.406C236.701 595.172 236.893 595.742 237.275 596.115C237.658 596.489 238.164 596.676 238.793 596.676ZM261.338 583.578C263.033 583.578 264.309 584.016 265.166 584.891C266.032 585.766 266.465 587.169 266.465 589.102V599H263.252V589.676C263.252 588.527 263.029 587.661 262.582 587.078C262.135 586.495 261.456 586.203 260.545 586.203C259.269 586.203 258.348 586.613 257.783 587.434C257.227 588.245 256.949 589.425 256.949 590.975V599H253.736V589.676C253.736 588.91 253.636 588.272 253.436 587.762C253.244 587.242 252.948 586.855 252.547 586.6C252.146 586.335 251.64 586.203 251.029 586.203C250.145 586.203 249.439 586.404 248.91 586.805C248.391 587.206 248.017 587.798 247.789 588.582C247.561 589.357 247.447 590.309 247.447 591.439V599H244.234V583.865H246.736L247.188 585.902H247.365C247.675 585.374 248.058 584.941 248.514 584.604C248.979 584.257 249.493 584.002 250.059 583.838C250.624 583.665 251.212 583.578 251.822 583.578C252.952 583.578 253.905 583.779 254.68 584.18C255.454 584.572 256.033 585.173 256.416 585.984H256.662C257.136 585.164 257.797 584.558 258.645 584.166C259.492 583.774 260.39 583.578 261.338 583.578ZM276.979 583.578C278.327 583.578 279.485 583.856 280.451 584.412C281.417 584.968 282.16 585.757 282.68 586.777C283.199 587.798 283.459 589.02 283.459 590.441V592.164H273.355C273.392 593.632 273.784 594.762 274.531 595.555C275.288 596.348 276.345 596.744 277.703 596.744C278.669 596.744 279.535 596.653 280.301 596.471C281.076 596.279 281.873 596.001 282.693 595.637V598.248C281.937 598.604 281.167 598.863 280.383 599.027C279.599 599.191 278.66 599.273 277.566 599.273C276.081 599.273 274.773 598.986 273.643 598.412C272.521 597.829 271.642 596.963 271.004 595.814C270.375 594.666 270.061 593.24 270.061 591.535C270.061 589.84 270.348 588.4 270.922 587.215C271.496 586.03 272.303 585.128 273.342 584.508C274.381 583.888 275.593 583.578 276.979 583.578ZM276.979 585.998C275.967 585.998 275.146 586.326 274.518 586.982C273.898 587.639 273.533 588.6 273.424 589.867H280.314C280.305 589.111 280.178 588.441 279.932 587.857C279.695 587.274 279.33 586.818 278.838 586.49C278.355 586.162 277.735 585.998 276.979 585.998ZM294.971 583.578C296.675 583.578 298.001 584.02 298.949 584.904C299.906 585.779 300.385 587.188 300.385 589.129V599H297.172V589.73C297.172 588.555 296.93 587.675 296.447 587.092C295.964 586.499 295.217 586.203 294.205 586.203C292.738 586.203 291.717 586.654 291.143 587.557C290.577 588.459 290.295 589.767 290.295 591.48V599H287.082V583.865H289.584L290.035 585.916H290.213C290.541 585.387 290.947 584.954 291.43 584.617C291.922 584.271 292.469 584.011 293.07 583.838C293.681 583.665 294.314 583.578 294.971 583.578ZM310.516 596.676C310.935 596.676 311.35 596.639 311.76 596.566C312.17 596.484 312.544 596.389 312.881 596.279V598.713C312.525 598.868 312.065 599 311.5 599.109C310.935 599.219 310.347 599.273 309.736 599.273C308.88 599.273 308.109 599.132 307.426 598.85C306.742 598.558 306.2 598.061 305.799 597.359C305.398 596.658 305.197 595.687 305.197 594.447V586.312H303.133V584.877L305.348 583.742L306.4 580.502H308.424V583.865H312.758V586.312H308.424V594.406C308.424 595.172 308.615 595.742 308.998 596.115C309.381 596.489 309.887 596.676 310.516 596.676Z" fill="#222C47"/>
<path d="M392.189 382H380.869V362.012H392.189V364.773H384.15V370.201H391.684V372.949H384.15V379.225H392.189V382ZM402.115 366.578C404.029 366.578 405.474 367.002 406.449 367.85C407.434 368.697 407.926 370.019 407.926 371.814V382H405.643L405.027 379.854H404.918C404.49 380.4 404.048 380.852 403.592 381.207C403.136 381.562 402.607 381.827 402.006 382C401.413 382.182 400.689 382.273 399.832 382.273C398.93 382.273 398.123 382.109 397.412 381.781C396.701 381.444 396.141 380.934 395.73 380.25C395.32 379.566 395.115 378.701 395.115 377.652C395.115 376.094 395.694 374.923 396.852 374.139C398.018 373.355 399.777 372.922 402.129 372.84L404.754 372.744V371.951C404.754 370.903 404.508 370.156 404.016 369.709C403.533 369.262 402.849 369.039 401.965 369.039C401.208 369.039 400.475 369.148 399.764 369.367C399.053 369.586 398.36 369.855 397.686 370.174L396.646 367.904C397.385 367.512 398.223 367.193 399.162 366.947C400.11 366.701 401.094 366.578 402.115 366.578ZM404.74 374.768L402.785 374.836C401.181 374.891 400.055 375.164 399.408 375.656C398.761 376.148 398.438 376.823 398.438 377.68C398.438 378.427 398.661 378.974 399.107 379.32C399.554 379.658 400.142 379.826 400.871 379.826C401.983 379.826 402.904 379.512 403.633 378.883C404.371 378.245 404.74 377.311 404.74 376.08V374.768ZM422.596 377.68C422.596 378.673 422.354 379.512 421.871 380.195C421.388 380.879 420.682 381.398 419.752 381.754C418.831 382.1 417.701 382.273 416.361 382.273C415.304 382.273 414.393 382.196 413.627 382.041C412.87 381.895 412.155 381.667 411.48 381.357V378.582C412.201 378.919 413.007 379.211 413.9 379.457C414.803 379.703 415.655 379.826 416.457 379.826C417.514 379.826 418.275 379.662 418.74 379.334C419.205 378.997 419.438 378.55 419.438 377.994C419.438 377.666 419.342 377.374 419.15 377.119C418.968 376.855 418.622 376.586 418.111 376.312C417.61 376.03 416.872 375.693 415.896 375.301C414.939 374.918 414.133 374.535 413.477 374.152C412.82 373.77 412.324 373.309 411.986 372.771C411.649 372.225 411.48 371.527 411.48 370.68C411.48 369.34 412.009 368.324 413.066 367.631C414.133 366.929 415.541 366.578 417.291 366.578C418.221 366.578 419.096 366.674 419.916 366.865C420.745 367.048 421.557 367.316 422.35 367.672L421.338 370.092C420.654 369.791 419.966 369.545 419.273 369.354C418.59 369.153 417.893 369.053 417.182 369.053C416.352 369.053 415.719 369.18 415.281 369.436C414.853 369.691 414.639 370.055 414.639 370.529C414.639 370.885 414.743 371.186 414.953 371.432C415.163 371.678 415.523 371.924 416.033 372.17C416.553 372.416 417.273 372.721 418.193 373.086C419.096 373.432 419.875 373.797 420.531 374.18C421.197 374.553 421.707 375.014 422.062 375.561C422.418 376.107 422.596 376.814 422.596 377.68ZM423.785 366.865H427.285L430.389 375.506C430.525 375.898 430.648 376.285 430.758 376.668C430.876 377.042 430.977 377.411 431.059 377.775C431.15 378.14 431.223 378.505 431.277 378.869H431.359C431.451 378.395 431.578 377.867 431.742 377.283C431.915 376.691 432.107 376.098 432.316 375.506L435.297 366.865H438.756L432.262 384.078C431.888 385.062 431.428 385.901 430.881 386.594C430.343 387.296 429.705 387.824 428.967 388.18C428.229 388.544 427.385 388.727 426.438 388.727C425.982 388.727 425.585 388.699 425.248 388.645C424.911 388.599 424.624 388.549 424.387 388.494V385.924C424.578 385.969 424.82 386.01 425.111 386.047C425.403 386.083 425.704 386.102 426.014 386.102C426.588 386.102 427.085 385.988 427.504 385.76C427.923 385.532 428.279 385.208 428.57 384.789C428.862 384.379 429.104 383.91 429.295 383.381L429.828 381.959L423.785 366.865ZM335.137 400.865V416H331.924V400.865H335.137ZM333.551 395.068C334.043 395.068 334.467 395.201 334.822 395.465C335.187 395.729 335.369 396.185 335.369 396.832C335.369 397.47 335.187 397.926 334.822 398.199C334.467 398.464 334.043 398.596 333.551 398.596C333.04 398.596 332.607 398.464 332.252 398.199C331.906 397.926 331.732 397.47 331.732 396.832C331.732 396.185 331.906 395.729 332.252 395.465C332.607 395.201 333.04 395.068 333.551 395.068ZM347.633 400.578C349.337 400.578 350.663 401.02 351.611 401.904C352.568 402.779 353.047 404.188 353.047 406.129V416H349.834V406.73C349.834 405.555 349.592 404.675 349.109 404.092C348.626 403.499 347.879 403.203 346.867 403.203C345.4 403.203 344.379 403.654 343.805 404.557C343.24 405.459 342.957 406.767 342.957 408.48V416H339.744V400.865H342.246L342.697 402.916H342.875C343.203 402.387 343.609 401.954 344.092 401.617C344.584 401.271 345.131 401.011 345.732 400.838C346.343 400.665 346.977 400.578 347.633 400.578ZM363.178 413.676C363.597 413.676 364.012 413.639 364.422 413.566C364.832 413.484 365.206 413.389 365.543 413.279V415.713C365.188 415.868 364.727 416 364.162 416.109C363.597 416.219 363.009 416.273 362.398 416.273C361.542 416.273 360.771 416.132 360.088 415.85C359.404 415.558 358.862 415.061 358.461 414.359C358.06 413.658 357.859 412.687 357.859 411.447V403.312H355.795V401.877L358.01 400.742L359.062 397.502H361.086V400.865H365.42V403.312H361.086V411.406C361.086 412.172 361.277 412.742 361.66 413.115C362.043 413.489 362.549 413.676 363.178 413.676ZM374.648 400.578C375.997 400.578 377.155 400.856 378.121 401.412C379.087 401.968 379.83 402.757 380.35 403.777C380.869 404.798 381.129 406.02 381.129 407.441V409.164H371.025C371.062 410.632 371.454 411.762 372.201 412.555C372.958 413.348 374.015 413.744 375.373 413.744C376.339 413.744 377.205 413.653 377.971 413.471C378.745 413.279 379.543 413.001 380.363 412.637V415.248C379.607 415.604 378.837 415.863 378.053 416.027C377.269 416.191 376.33 416.273 375.236 416.273C373.751 416.273 372.443 415.986 371.312 415.412C370.191 414.829 369.312 413.963 368.674 412.814C368.045 411.666 367.73 410.24 367.73 408.535C367.73 406.84 368.018 405.4 368.592 404.215C369.166 403.03 369.973 402.128 371.012 401.508C372.051 400.888 373.263 400.578 374.648 400.578ZM374.648 402.998C373.637 402.998 372.816 403.326 372.188 403.982C371.568 404.639 371.203 405.6 371.094 406.867H377.984C377.975 406.111 377.848 405.441 377.602 404.857C377.365 404.274 377 403.818 376.508 403.49C376.025 403.162 375.405 402.998 374.648 402.998ZM389.072 422.727C387.021 422.727 385.449 422.357 384.355 421.619C383.262 420.881 382.715 419.846 382.715 418.516C382.715 417.586 383.007 416.798 383.59 416.15C384.173 415.512 385.007 415.07 386.092 414.824C385.682 414.642 385.326 414.359 385.025 413.977C384.734 413.585 384.588 413.152 384.588 412.678C384.588 412.113 384.747 411.63 385.066 411.229C385.385 410.827 385.864 410.44 386.502 410.066C385.709 409.729 385.071 409.182 384.588 408.426C384.114 407.66 383.877 406.762 383.877 405.732C383.877 404.639 384.109 403.709 384.574 402.943C385.039 402.169 385.718 401.581 386.611 401.18C387.505 400.77 388.585 400.564 389.852 400.564C390.125 400.564 390.421 400.583 390.74 400.619C391.068 400.646 391.369 400.683 391.643 400.729C391.925 400.765 392.139 400.806 392.285 400.852H397.521V402.643L394.951 403.121C395.197 403.467 395.393 403.864 395.539 404.311C395.685 404.748 395.758 405.227 395.758 405.746C395.758 407.314 395.215 408.549 394.131 409.451C393.055 410.344 391.57 410.791 389.674 410.791C389.218 410.773 388.776 410.736 388.348 410.682C388.02 410.882 387.769 411.105 387.596 411.352C387.423 411.589 387.336 411.857 387.336 412.158C387.336 412.404 387.423 412.605 387.596 412.76C387.769 412.906 388.024 413.015 388.361 413.088C388.708 413.161 389.127 413.197 389.619 413.197H392.23C393.889 413.197 395.156 413.548 396.031 414.25C396.906 414.952 397.344 415.982 397.344 417.34C397.344 419.062 396.633 420.389 395.211 421.318C393.789 422.257 391.743 422.727 389.072 422.727ZM389.195 420.471C390.316 420.471 391.26 420.361 392.025 420.143C392.791 419.924 393.37 419.609 393.762 419.199C394.154 418.798 394.35 418.32 394.35 417.764C394.35 417.271 394.227 416.893 393.98 416.629C393.734 416.365 393.365 416.182 392.873 416.082C392.381 415.982 391.77 415.932 391.041 415.932H388.662C388.07 415.932 387.546 416.023 387.09 416.205C386.634 416.396 386.279 416.67 386.023 417.025C385.777 417.381 385.654 417.809 385.654 418.311C385.654 419.003 385.96 419.536 386.57 419.91C387.19 420.284 388.065 420.471 389.195 420.471ZM389.824 408.686C390.763 408.686 391.46 408.43 391.916 407.92C392.372 407.4 392.6 406.671 392.6 405.732C392.6 404.712 392.363 403.946 391.889 403.436C391.424 402.925 390.731 402.67 389.811 402.67C388.908 402.67 388.22 402.93 387.746 403.449C387.281 403.969 387.049 404.739 387.049 405.76C387.049 406.68 387.281 407.4 387.746 407.92C388.22 408.43 388.913 408.686 389.824 408.686ZM407.953 400.578C408.208 400.578 408.486 400.592 408.787 400.619C409.088 400.646 409.348 400.683 409.566 400.729L409.266 403.736C409.074 403.682 408.837 403.641 408.555 403.613C408.281 403.586 408.035 403.572 407.816 403.572C407.242 403.572 406.695 403.668 406.176 403.859C405.656 404.042 405.196 404.324 404.795 404.707C404.394 405.081 404.079 405.55 403.852 406.115C403.624 406.68 403.51 407.337 403.51 408.084V416H400.283V400.865H402.799L403.236 403.531H403.387C403.688 402.993 404.061 402.501 404.508 402.055C404.954 401.608 405.465 401.253 406.039 400.988C406.622 400.715 407.26 400.578 407.953 400.578ZM418.303 400.578C420.217 400.578 421.661 401.002 422.637 401.85C423.621 402.697 424.113 404.019 424.113 405.814V416H421.83L421.215 413.854H421.105C420.677 414.4 420.235 414.852 419.779 415.207C419.324 415.562 418.795 415.827 418.193 416C417.601 416.182 416.876 416.273 416.02 416.273C415.117 416.273 414.311 416.109 413.6 415.781C412.889 415.444 412.328 414.934 411.918 414.25C411.508 413.566 411.303 412.701 411.303 411.652C411.303 410.094 411.882 408.923 413.039 408.139C414.206 407.355 415.965 406.922 418.316 406.84L420.941 406.744V405.951C420.941 404.903 420.695 404.156 420.203 403.709C419.72 403.262 419.036 403.039 418.152 403.039C417.396 403.039 416.662 403.148 415.951 403.367C415.24 403.586 414.548 403.855 413.873 404.174L412.834 401.904C413.572 401.512 414.411 401.193 415.35 400.947C416.298 400.701 417.282 400.578 418.303 400.578ZM420.928 408.768L418.973 408.836C417.368 408.891 416.243 409.164 415.596 409.656C414.949 410.148 414.625 410.823 414.625 411.68C414.625 412.427 414.848 412.974 415.295 413.32C415.742 413.658 416.329 413.826 417.059 413.826C418.171 413.826 419.091 413.512 419.82 412.883C420.559 412.245 420.928 411.311 420.928 410.08V408.768ZM434.244 413.676C434.663 413.676 435.078 413.639 435.488 413.566C435.898 413.484 436.272 413.389 436.609 413.279V415.713C436.254 415.868 435.794 416 435.229 416.109C434.663 416.219 434.076 416.273 433.465 416.273C432.608 416.273 431.838 416.132 431.154 415.85C430.471 415.558 429.928 415.061 429.527 414.359C429.126 413.658 428.926 412.687 428.926 411.447V403.312H426.861V401.877L429.076 400.742L430.129 397.502H432.152V400.865H436.486V403.312H432.152V411.406C432.152 412.172 432.344 412.742 432.727 413.115C433.109 413.489 433.615 413.676 434.244 413.676ZM442.898 400.865V416H439.686V400.865H442.898ZM441.312 395.068C441.805 395.068 442.229 395.201 442.584 395.465C442.949 395.729 443.131 396.185 443.131 396.832C443.131 397.47 442.949 397.926 442.584 398.199C442.229 398.464 441.805 398.596 441.312 398.596C440.802 398.596 440.369 398.464 440.014 398.199C439.667 397.926 439.494 397.47 439.494 396.832C439.494 396.185 439.667 395.729 440.014 395.465C440.369 395.201 440.802 395.068 441.312 395.068ZM460.904 408.398C460.904 409.656 460.74 410.773 460.412 411.748C460.084 412.723 459.605 413.548 458.977 414.223C458.348 414.888 457.591 415.398 456.707 415.754C455.823 416.1 454.825 416.273 453.713 416.273C452.674 416.273 451.721 416.1 450.855 415.754C449.99 415.398 449.238 414.888 448.6 414.223C447.971 413.548 447.483 412.723 447.137 411.748C446.79 410.773 446.617 409.656 446.617 408.398C446.617 406.73 446.904 405.318 447.479 404.16C448.062 402.993 448.891 402.105 449.967 401.494C451.042 400.883 452.323 400.578 453.809 400.578C455.203 400.578 456.434 400.883 457.5 401.494C458.566 402.105 459.4 402.993 460.002 404.16C460.604 405.327 460.904 406.74 460.904 408.398ZM449.926 408.398C449.926 409.501 450.058 410.445 450.322 411.229C450.596 412.012 451.015 412.614 451.58 413.033C452.145 413.443 452.874 413.648 453.768 413.648C454.661 413.648 455.39 413.443 455.955 413.033C456.52 412.614 456.935 412.012 457.199 411.229C457.464 410.445 457.596 409.501 457.596 408.398C457.596 407.296 457.464 406.361 457.199 405.596C456.935 404.821 456.52 404.233 455.955 403.832C455.39 403.422 454.656 403.217 453.754 403.217C452.423 403.217 451.452 403.663 450.842 404.557C450.231 405.45 449.926 406.73 449.926 408.398ZM472.484 400.578C474.189 400.578 475.515 401.02 476.463 401.904C477.42 402.779 477.898 404.188 477.898 406.129V416H474.686V406.73C474.686 405.555 474.444 404.675 473.961 404.092C473.478 403.499 472.73 403.203 471.719 403.203C470.251 403.203 469.23 403.654 468.656 404.557C468.091 405.459 467.809 406.767 467.809 408.48V416H464.596V400.865H467.098L467.549 402.916H467.727C468.055 402.387 468.46 401.954 468.943 401.617C469.436 401.271 469.982 401.011 470.584 400.838C471.195 400.665 471.828 400.578 472.484 400.578ZM334.002 449.986L332.088 442.945C331.997 442.599 331.887 442.18 331.76 441.688C331.632 441.195 331.505 440.689 331.377 440.17C331.249 439.641 331.131 439.154 331.021 438.707C330.921 438.26 330.844 437.914 330.789 437.668H330.68C330.634 437.914 330.561 438.26 330.461 438.707C330.361 439.154 330.247 439.641 330.119 440.17C329.992 440.699 329.864 441.214 329.736 441.715C329.618 442.216 329.508 442.645 329.408 443L327.398 449.986H323.871L319.633 434.852H322.887L324.855 442.371C324.983 442.882 325.106 443.433 325.225 444.025C325.352 444.618 325.462 445.183 325.553 445.721C325.644 446.258 325.712 446.701 325.758 447.047H325.867C325.904 446.801 325.954 446.491 326.018 446.117C326.081 445.734 326.154 445.338 326.236 444.928C326.318 444.508 326.4 444.117 326.482 443.752C326.564 443.378 326.642 443.077 326.715 442.85L329.039 434.852H332.553L334.781 442.85C334.882 443.196 334.991 443.633 335.109 444.162C335.228 444.682 335.333 445.206 335.424 445.734C335.524 446.254 335.588 446.687 335.615 447.033H335.725C335.761 446.723 335.825 446.304 335.916 445.775C336.016 445.238 336.13 444.668 336.258 444.066C336.385 443.456 336.518 442.891 336.654 442.371L338.664 434.852H341.863L337.598 449.986H334.002ZM347.674 434.865V450H344.461V434.865H347.674ZM346.088 429.068C346.58 429.068 347.004 429.201 347.359 429.465C347.724 429.729 347.906 430.185 347.906 430.832C347.906 431.47 347.724 431.926 347.359 432.199C347.004 432.464 346.58 432.596 346.088 432.596C345.577 432.596 345.145 432.464 344.789 432.199C344.443 431.926 344.27 431.47 344.27 430.832C344.27 430.185 344.443 429.729 344.789 429.465C345.145 429.201 345.577 429.068 346.088 429.068ZM357.914 447.676C358.333 447.676 358.748 447.639 359.158 447.566C359.568 447.484 359.942 447.389 360.279 447.279V449.713C359.924 449.868 359.464 450 358.898 450.109C358.333 450.219 357.745 450.273 357.135 450.273C356.278 450.273 355.508 450.132 354.824 449.85C354.141 449.558 353.598 449.061 353.197 448.359C352.796 447.658 352.596 446.687 352.596 445.447V437.312H350.531V435.877L352.746 434.742L353.799 431.502H355.822V434.865H360.156V437.312H355.822V445.406C355.822 446.172 356.014 446.742 356.396 447.115C356.779 447.489 357.285 447.676 357.914 447.676ZM366.568 428.727V434.072C366.568 434.628 366.55 435.171 366.514 435.699C366.486 436.228 366.454 436.638 366.418 436.93H366.596C366.915 436.401 367.307 435.968 367.771 435.631C368.236 435.285 368.756 435.025 369.33 434.852C369.913 434.678 370.533 434.592 371.189 434.592C372.347 434.592 373.331 434.788 374.143 435.18C374.954 435.562 375.574 436.16 376.002 436.971C376.439 437.782 376.658 438.835 376.658 440.129V450H373.445V440.73C373.445 439.555 373.204 438.675 372.721 438.092C372.238 437.499 371.49 437.203 370.479 437.203C369.503 437.203 368.729 437.408 368.154 437.818C367.589 438.219 367.184 438.816 366.938 439.609C366.691 440.393 366.568 441.35 366.568 442.48V450H363.355V428.727H366.568ZM396.318 434.578C398.023 434.578 399.349 435.02 400.297 435.904C401.254 436.779 401.732 438.188 401.732 440.129V450H398.52V440.73C398.52 439.555 398.278 438.675 397.795 438.092C397.312 437.499 396.564 437.203 395.553 437.203C394.085 437.203 393.064 437.654 392.49 438.557C391.925 439.459 391.643 440.767 391.643 442.48V450H388.43V434.865H390.932L391.383 436.916H391.561C391.889 436.387 392.294 435.954 392.777 435.617C393.27 435.271 393.816 435.011 394.418 434.838C395.029 434.665 395.662 434.578 396.318 434.578ZM419.629 442.398C419.629 443.656 419.465 444.773 419.137 445.748C418.809 446.723 418.33 447.548 417.701 448.223C417.072 448.888 416.316 449.398 415.432 449.754C414.548 450.1 413.549 450.273 412.438 450.273C411.398 450.273 410.446 450.1 409.58 449.754C408.714 449.398 407.962 448.888 407.324 448.223C406.695 447.548 406.208 446.723 405.861 445.748C405.515 444.773 405.342 443.656 405.342 442.398C405.342 440.73 405.629 439.318 406.203 438.16C406.786 436.993 407.616 436.105 408.691 435.494C409.767 434.883 411.048 434.578 412.533 434.578C413.928 434.578 415.158 434.883 416.225 435.494C417.291 436.105 418.125 436.993 418.727 438.16C419.328 439.327 419.629 440.74 419.629 442.398ZM408.65 442.398C408.65 443.501 408.783 444.445 409.047 445.229C409.32 446.012 409.74 446.614 410.305 447.033C410.87 447.443 411.599 447.648 412.492 447.648C413.385 447.648 414.115 447.443 414.68 447.033C415.245 446.614 415.66 446.012 415.924 445.229C416.188 444.445 416.32 443.501 416.32 442.398C416.32 441.296 416.188 440.361 415.924 439.596C415.66 438.821 415.245 438.233 414.68 437.832C414.115 437.422 413.381 437.217 412.479 437.217C411.148 437.217 410.177 437.663 409.566 438.557C408.956 439.45 408.65 440.73 408.65 442.398ZM436.691 450.273C435.26 450.273 434.021 449.995 432.973 449.439C431.924 448.883 431.118 448.031 430.553 446.883C429.988 445.734 429.705 444.276 429.705 442.508C429.705 440.667 430.015 439.163 430.635 437.996C431.255 436.829 432.111 435.968 433.205 435.412C434.308 434.856 435.57 434.578 436.992 434.578C437.895 434.578 438.71 434.669 439.439 434.852C440.178 435.025 440.802 435.239 441.312 435.494L440.355 438.064C439.799 437.837 439.23 437.645 438.646 437.49C438.063 437.335 437.503 437.258 436.965 437.258C436.081 437.258 435.342 437.454 434.75 437.846C434.167 438.238 433.729 438.821 433.438 439.596C433.155 440.37 433.014 441.332 433.014 442.48C433.014 443.592 433.16 444.531 433.451 445.297C433.743 446.053 434.176 446.628 434.75 447.02C435.324 447.402 436.031 447.594 436.869 447.594C437.699 447.594 438.441 447.493 439.098 447.293C439.754 447.092 440.374 446.833 440.957 446.514V449.303C440.383 449.631 439.768 449.872 439.111 450.027C438.455 450.191 437.648 450.273 436.691 450.273ZM457.91 442.398C457.91 443.656 457.746 444.773 457.418 445.748C457.09 446.723 456.611 447.548 455.982 448.223C455.354 448.888 454.597 449.398 453.713 449.754C452.829 450.1 451.831 450.273 450.719 450.273C449.68 450.273 448.727 450.1 447.861 449.754C446.995 449.398 446.243 448.888 445.605 448.223C444.977 447.548 444.489 446.723 444.143 445.748C443.796 444.773 443.623 443.656 443.623 442.398C443.623 440.73 443.91 439.318 444.484 438.16C445.068 436.993 445.897 436.105 446.973 435.494C448.048 434.883 449.329 434.578 450.814 434.578C452.209 434.578 453.439 434.883 454.506 435.494C455.572 436.105 456.406 436.993 457.008 438.16C457.609 439.327 457.91 440.74 457.91 442.398ZM446.932 442.398C446.932 443.501 447.064 444.445 447.328 445.229C447.602 446.012 448.021 446.614 448.586 447.033C449.151 447.443 449.88 447.648 450.773 447.648C451.667 447.648 452.396 447.443 452.961 447.033C453.526 446.614 453.941 446.012 454.205 445.229C454.469 444.445 454.602 443.501 454.602 442.398C454.602 441.296 454.469 440.361 454.205 439.596C453.941 438.821 453.526 438.233 452.961 437.832C452.396 437.422 451.662 437.217 450.76 437.217C449.429 437.217 448.458 437.663 447.848 438.557C447.237 439.45 446.932 440.73 446.932 442.398ZM471.773 445.68C471.773 446.673 471.532 447.512 471.049 448.195C470.566 448.879 469.859 449.398 468.93 449.754C468.009 450.1 466.879 450.273 465.539 450.273C464.482 450.273 463.57 450.196 462.805 450.041C462.048 449.895 461.333 449.667 460.658 449.357V446.582C461.378 446.919 462.185 447.211 463.078 447.457C463.98 447.703 464.833 447.826 465.635 447.826C466.692 447.826 467.453 447.662 467.918 447.334C468.383 446.997 468.615 446.55 468.615 445.994C468.615 445.666 468.52 445.374 468.328 445.119C468.146 444.855 467.799 444.586 467.289 444.312C466.788 444.03 466.049 443.693 465.074 443.301C464.117 442.918 463.311 442.535 462.654 442.152C461.998 441.77 461.501 441.309 461.164 440.771C460.827 440.225 460.658 439.527 460.658 438.68C460.658 437.34 461.187 436.324 462.244 435.631C463.311 434.929 464.719 434.578 466.469 434.578C467.398 434.578 468.273 434.674 469.094 434.865C469.923 435.048 470.734 435.316 471.527 435.672L470.516 438.092C469.832 437.791 469.144 437.545 468.451 437.354C467.768 437.153 467.07 437.053 466.359 437.053C465.53 437.053 464.896 437.18 464.459 437.436C464.031 437.691 463.816 438.055 463.816 438.529C463.816 438.885 463.921 439.186 464.131 439.432C464.34 439.678 464.701 439.924 465.211 440.17C465.73 440.416 466.451 440.721 467.371 441.086C468.273 441.432 469.053 441.797 469.709 442.18C470.374 442.553 470.885 443.014 471.24 443.561C471.596 444.107 471.773 444.814 471.773 445.68ZM480.879 447.676C481.298 447.676 481.713 447.639 482.123 447.566C482.533 447.484 482.907 447.389 483.244 447.279V449.713C482.889 449.868 482.428 450 481.863 450.109C481.298 450.219 480.71 450.273 480.1 450.273C479.243 450.273 478.473 450.132 477.789 449.85C477.105 449.558 476.563 449.061 476.162 448.359C475.761 447.658 475.561 446.687 475.561 445.447V437.312H473.496V435.877L475.711 434.742L476.764 431.502H478.787V434.865H483.121V437.312H478.787V445.406C478.787 446.172 478.979 446.742 479.361 447.115C479.744 447.489 480.25 447.676 480.879 447.676ZM496.492 445.68C496.492 446.673 496.251 447.512 495.768 448.195C495.285 448.879 494.578 449.398 493.648 449.754C492.728 450.1 491.598 450.273 490.258 450.273C489.201 450.273 488.289 450.196 487.523 450.041C486.767 449.895 486.051 449.667 485.377 449.357V446.582C486.097 446.919 486.904 447.211 487.797 447.457C488.699 447.703 489.551 447.826 490.354 447.826C491.411 447.826 492.172 447.662 492.637 447.334C493.102 446.997 493.334 446.55 493.334 445.994C493.334 445.666 493.238 445.374 493.047 445.119C492.865 444.855 492.518 444.586 492.008 444.312C491.507 444.03 490.768 443.693 489.793 443.301C488.836 442.918 488.029 442.535 487.373 442.152C486.717 441.77 486.22 441.309 485.883 440.771C485.546 440.225 485.377 439.527 485.377 438.68C485.377 437.34 485.906 436.324 486.963 435.631C488.029 434.929 489.438 434.578 491.188 434.578C492.117 434.578 492.992 434.674 493.812 434.865C494.642 435.048 495.453 435.316 496.246 435.672L495.234 438.092C494.551 437.791 493.863 437.545 493.17 437.354C492.486 437.153 491.789 437.053 491.078 437.053C490.249 437.053 489.615 437.18 489.178 437.436C488.749 437.691 488.535 438.055 488.535 438.529C488.535 438.885 488.64 439.186 488.85 439.432C489.059 439.678 489.419 439.924 489.93 440.17C490.449 440.416 491.169 440.721 492.09 441.086C492.992 441.432 493.771 441.797 494.428 442.18C495.093 442.553 495.604 443.014 495.959 443.561C496.314 444.107 496.492 444.814 496.492 445.68Z" fill="#222C47"/>
</g>
<defs>
<clipPath id="clip0_14_132">
<rect width="540" height="644" fill="white"/>
</clipPath>
</defs>
</svg>
