<svg width="73" height="72" viewBox="0 0 73 72" fill="none" xmlns="http://www.w3.org/2000/svg">
<path d="M33.625 37.75H21.375C20.85 37.75 20.5 38.1 20.5 38.625V50.875C20.5 51.4 20.85 51.75 21.375 51.75H33.625C34.15 51.75 34.5 51.4 34.5 50.875V38.625C34.5 38.1 34.15 37.75 33.625 37.75ZM32.75 50H22.25V39.5H32.75V50ZM33.625 20.25H21.375C20.85 20.25 20.5 20.6 20.5 21.125V33.375C20.5 33.9 20.85 34.25 21.375 34.25H33.625C34.15 34.25 34.5 33.9 34.5 33.375V21.125C34.5 20.6 34.15 20.25 33.625 20.25ZM32.75 32.5H22.25V22H32.75V32.5ZM51.125 20.25H38.875C38.35 20.25 38 20.6 38 21.125V33.375C38 33.9 38.35 34.25 38.875 34.25H51.125C51.65 34.25 52 33.9 52 33.375V21.125C52 20.6 51.65 20.25 51.125 20.25ZM50.25 32.5H39.75V22H50.25V32.5ZM51.125 43.875H45.875V38.625C45.875 38.1 45.525 37.75 45 37.75C44.475 37.75 44.125 38.1 44.125 38.625V43.875H38.875C38.35 43.875 38 44.225 38 44.75C38 45.275 38.35 45.625 38.875 45.625H44.125V50.875C44.125 51.4 44.475 51.75 45 51.75C45.525 51.75 45.875 51.4 45.875 50.875V45.625H51.125C51.65 45.625 52 45.275 52 44.75C52 44.225 51.65 43.875 51.125 43.875Z" fill="#5C5E65"/>
<rect x="0.75" y="0.5" width="71" height="71" rx="29.5" stroke="#5C5E65"/>
</svg>
