<svg width="73" height="72" viewBox="0 0 73 72" fill="none" xmlns="http://www.w3.org/2000/svg">
<path fill-rule="evenodd" clip-rule="evenodd" d="M32.5609 17.0273H39.7958C40.0071 17.0273 40.1783 17.1986 40.1783 17.4099V22.6448C40.1783 22.8561 40.0071 23.0273 39.7958 23.0273H32.5609C32.3496 23.0273 32.1783 22.8561 32.1783 22.6448V17.4099C32.1783 17.1986 32.3496 17.0273 32.5609 17.0273ZM30.6783 17.4099C30.6783 16.3702 31.5212 15.5273 32.5609 15.5273H39.7958C40.8355 15.5273 41.6783 16.3702 41.6783 17.4099V22.6448C41.6783 23.6845 40.8355 24.5273 39.7958 24.5273H32.5609C31.5212 24.5273 30.6783 23.6845 30.6783 22.6448V17.4099ZM33.6729 27.7213C33.2587 27.7213 32.9229 28.0571 32.9229 28.4713V30.2102C32.3184 30.4127 31.7486 30.6932 31.2247 31.0396L29.6301 29.9665C29.4615 29.8531 29.2542 29.813 29.0555 29.8552C28.8568 29.8974 28.6837 30.0184 28.5759 30.1905L26.9062 32.8545C26.6912 33.1975 26.7872 33.6491 27.123 33.8751L28.3233 34.6828C28.1096 35.2446 27.9587 35.8387 27.8792 36.4555L26.3022 36.7145C25.8966 36.7811 25.6202 37.1618 25.6824 37.568L26.1624 40.7054C26.1927 40.9034 26.301 41.0811 26.4631 41.1988C26.6252 41.3165 26.8277 41.3645 27.0254 41.332L28.6808 41.0601C28.8093 41.3086 28.9507 41.5491 29.1041 41.7803L28.0106 42.9725C27.7376 43.2702 27.7493 43.7305 28.0371 44.0139L30.2592 46.2022C30.4043 46.345 30.6011 46.4227 30.8045 46.4175C31.008 46.4124 31.2006 46.3247 31.3382 46.1747L32.7249 44.6629C32.7905 44.687 32.8565 44.7102 32.9229 44.7324V46.4712C32.9229 46.8854 33.2586 47.2212 33.6729 47.2212H36.7385C37.1527 47.2212 37.4885 46.8854 37.4885 46.4712V44.7329C37.6168 44.69 37.7435 44.6435 37.8686 44.5937L39.3188 46.1747C39.4564 46.3247 39.649 46.4124 39.8524 46.4175C40.0559 46.4227 40.2527 46.345 40.3977 46.2022L42.6199 44.0139C42.9077 43.7305 42.9194 43.2702 42.6464 42.9725L41.4097 41.6242C41.5095 41.4656 41.6037 41.3028 41.6921 41.1364L43.9769 41.4136C44.1754 41.4376 44.3754 41.3814 44.5323 41.2575C44.6892 41.1335 44.7901 40.9519 44.8125 40.7532L45.169 37.5983C45.2153 37.1891 44.9229 36.8191 44.5141 36.7695L42.543 36.5304C42.4699 35.9168 42.3261 35.3251 42.1202 34.7647L43.4422 33.8752C43.778 33.6492 43.8739 33.1976 43.659 32.8546L41.9893 30.1906C41.8814 30.0185 41.7084 29.8975 41.5097 29.8553C41.311 29.813 41.1036 29.8532 40.9351 29.9666L39.2645 31.0907C38.7194 30.7204 38.1231 30.4221 37.4885 30.2097V28.4713C37.4885 28.0571 37.1527 27.7213 36.7385 27.7213H33.6729ZM34.4229 30.7732V29.2213H35.9885V30.7729C35.9885 31.1184 36.2246 31.4193 36.5603 31.5014C37.377 31.7012 38.1301 32.0785 38.7791 32.5945C39.035 32.7979 39.3933 32.8121 39.6645 32.6296L41.1298 31.6436L42.0024 33.036L40.7738 33.8627C40.4676 34.0688 40.3568 34.4669 40.5126 34.8015C40.8559 35.539 41.0618 36.3599 41.0942 37.229C41.1079 37.5974 41.3874 37.9012 41.7533 37.9456L43.595 38.169L43.4069 39.8334L41.3419 39.5829C41.0139 39.5431 40.6985 39.7226 40.5652 40.0249C40.3733 40.4604 40.1338 40.8683 39.8538 41.2415C39.6372 41.5303 39.657 41.9325 39.901 42.1985L41.0517 43.453L39.8989 44.5882L38.6097 43.1826C38.3845 42.937 38.0242 42.8695 37.7253 43.0168C37.3561 43.1989 36.9661 43.342 36.5603 43.4412C36.2246 43.5234 35.9885 43.8242 35.9885 44.1698V45.7212H34.4229V44.1694C34.4229 43.8239 34.1868 43.5231 33.8512 43.4409C33.5005 43.355 33.1617 43.2364 32.838 43.0883C32.5422 42.953 32.193 43.0237 31.9732 43.2633L30.758 44.5882L29.6053 43.453L30.6233 42.3431C30.8725 42.0715 30.8873 41.6592 30.6584 41.3703C30.3159 40.9382 30.029 40.4562 29.8094 39.9363C29.6746 39.6172 29.3388 39.4319 28.9969 39.488L27.5305 39.7289L27.2773 38.0744L28.6952 37.8415C29.0434 37.7843 29.3046 37.4921 29.3227 37.1397C29.3668 36.2765 29.5821 35.4624 29.9332 34.7321C30.0946 34.3963 29.985 33.9929 29.6759 33.7849L28.5628 33.0359L29.4354 31.6436L30.8188 32.5744C31.087 32.7549 31.4406 32.7432 31.6963 32.5454C32.3307 32.0549 33.0611 31.6952 33.8513 31.5017C34.1869 31.4195 34.4229 31.1187 34.4229 30.7732ZM32.6737 37.4714C32.6737 35.9526 33.905 34.7214 35.4237 34.7214C36.9425 34.7214 38.1737 35.9526 38.1737 37.4714C38.1737 38.9901 36.9425 40.2214 35.4237 40.2214C33.905 40.2214 32.6737 38.9901 32.6737 37.4714ZM35.4237 33.2214C33.0765 33.2214 31.1737 35.1241 31.1737 37.4714C31.1737 39.8186 33.0765 41.7214 35.4237 41.7214C37.771 41.7214 39.6737 39.8186 39.6737 37.4714C39.6737 35.1241 37.771 33.2214 35.4237 33.2214ZM23.8111 53.1149C25.7441 53.1149 27.3111 51.5479 27.3111 49.6149C27.3111 47.6819 25.7441 46.1149 23.8111 46.1149C21.8781 46.1149 20.3111 47.6819 20.3111 49.6149C20.3111 51.5479 21.8781 53.1149 23.8111 53.1149ZM23.8111 54.6149C26.5725 54.6149 28.8111 52.3763 28.8111 49.6149C28.8111 46.8534 26.5725 44.6149 23.8111 44.6149C21.0497 44.6149 18.8111 46.8534 18.8111 49.6149C18.8111 52.3763 21.0497 54.6149 23.8111 54.6149ZM48.8235 43.0111L51.8235 41.3445L54.8235 43.0111V46.2459L51.8235 47.9126L48.8235 46.2459V43.0111ZM51.3664 39.8825C51.6506 39.7246 51.9963 39.7246 52.2806 39.8825L55.8393 41.8596C56.1382 42.0256 56.3235 42.3406 56.3235 42.6824V46.5747C56.3235 46.9165 56.1382 47.2315 55.8393 47.3975L52.2806 49.3746C51.9963 49.5325 51.6506 49.5325 51.3664 49.3746L47.8076 47.3975C47.5088 47.2315 47.3235 46.9165 47.3235 46.5747V42.6824C47.3235 42.3406 47.5088 42.0256 47.8076 41.8596L51.3664 39.8825ZM27.2616 24.0965C26.8599 23.9955 26.6161 23.5879 26.7171 23.1862L26.817 22.7892C26.7962 22.8018 26.7755 22.8145 26.7548 22.8272C21.9064 25.8067 18.6758 31.1575 18.6758 37.2622C18.6758 39.2518 19.0186 41.1596 19.6479 42.9309C19.7865 43.3212 19.5825 43.75 19.1922 43.8887C18.8019 44.0273 18.3731 43.8233 18.2344 43.433C17.5487 41.5028 17.1758 39.4252 17.1758 37.2622C17.1758 30.6149 20.6955 24.7902 25.9694 21.5492C25.998 21.5317 26.0267 21.5141 26.0554 21.4967L25.6447 21.3935C25.2429 21.2925 24.9992 20.8849 25.1002 20.4832C25.2011 20.0815 25.6087 19.8377 26.0104 19.9387L28.1705 20.4818C28.3634 20.5303 28.5292 20.6534 28.6313 20.8242C28.7334 20.9949 28.7635 21.1991 28.715 21.3921L28.1718 23.552C28.0708 23.9537 27.6633 24.1975 27.2616 24.0965ZM51.9958 35.7214C51.6735 35.4612 51.2013 35.5115 50.9411 35.8338C50.6809 36.1561 50.7312 36.6283 51.0535 36.8885L52.7863 38.2877C52.9411 38.4126 53.1391 38.471 53.3369 38.4499C53.5347 38.4288 53.7161 38.33 53.841 38.1753L55.2402 36.4422C55.5004 36.12 55.4501 35.6478 55.1278 35.3876C54.8055 35.1274 54.3333 35.1777 54.0731 35.5L53.9649 35.634C53.4429 29.6709 50.0808 24.5227 45.2423 21.5492C44.9514 21.3705 44.6552 21.1996 44.354 21.0369C43.9895 20.84 43.5345 20.9758 43.3376 21.3402C43.1407 21.7047 43.2765 22.1597 43.641 22.3566C43.9177 22.5061 44.1897 22.663 44.4569 22.8272C49.0024 25.6206 52.1259 30.4982 52.4984 36.1273L51.9958 35.7214ZM32.3413 52.1621C32.588 52.4948 32.5183 52.9645 32.1856 53.2113L31.5506 53.6821C31.6171 53.7058 31.6804 53.7282 31.74 53.7491C32.9809 54.0389 34.275 54.1923 35.6058 54.1923C38.8517 54.1923 41.882 53.2796 44.4569 51.6972C45.4172 51.1071 46.3143 50.4237 47.1355 49.6597C47.4387 49.3775 47.9133 49.3946 48.1954 49.6978C48.4776 50.0011 48.4605 50.4757 48.1572 50.7578C47.2638 51.5891 46.2876 52.3328 45.2423 52.9752C42.4379 54.6986 39.1368 55.6923 35.6058 55.6923C34.3404 55.6923 33.104 55.5646 31.9091 55.3213C32.1194 55.6503 32.0419 56.0907 31.7235 56.3269C31.3908 56.5736 30.9211 56.504 30.6743 56.1713L29.3475 54.3823C29.229 54.2225 29.1788 54.0222 29.208 53.8254C29.2372 53.6287 29.3434 53.4515 29.5031 53.3331L31.2921 52.0064C31.6248 51.7597 32.0946 51.8294 32.3413 52.1621Z" fill="#5C5E65"/>
<rect x="1.25" y="0.5" width="71" height="71" rx="29.5" stroke="#5C5E65"/>
</svg>
