<svg width="73" height="72" viewBox="0 0 73 72" fill="none" xmlns="http://www.w3.org/2000/svg">
<path d="M50.7485 38L51.8685 34.636C51.9687 34.3352 51.996 34.0148 51.948 33.7014C51.9 33.388 51.7782 33.0905 51.5926 32.8334C51.4071 32.5763 51.163 32.367 50.8806 32.2228C50.5982 32.0786 50.2856 32.0036 49.9685 32.004L23.5285 32.038C23.2115 32.0383 22.8991 32.1141 22.6171 32.2589C22.3351 32.4037 22.0915 32.6135 21.9065 32.871C21.7215 33.1284 21.6004 33.4262 21.5531 33.7397C21.5058 34.0532 21.5337 34.3734 21.6345 34.674L22.7485 38M50.7485 28L51.3605 24.328C51.4082 24.0416 51.3928 23.7483 51.3157 23.4684C51.2385 23.1885 51.1014 22.9288 50.9137 22.7073C50.7261 22.4858 50.4924 22.3078 50.229 22.1856C49.9657 22.0635 49.6789 22.0001 49.3885 22H24.1085C23.8182 22.0001 23.5314 22.0635 23.268 22.1856C23.0047 22.3078 22.771 22.4858 22.5834 22.7073C22.3957 22.9288 22.2586 23.1885 22.1814 23.4684C22.1042 23.7483 22.0889 24.0416 22.1365 24.328L22.7485 28M51.1285 48.486L52.1285 44.486C52.2024 44.1911 52.2081 43.8832 52.1451 43.5858C52.0822 43.2884 51.9522 43.0092 51.7652 42.7696C51.5782 42.5299 51.339 42.336 51.0658 42.2027C50.7926 42.0693 50.4926 42 50.1885 42H23.3085C23.0045 42 22.7045 42.0693 22.4313 42.2027C22.1581 42.336 21.9189 42.5299 21.7319 42.7696C21.5448 43.0092 21.4149 43.2884 21.352 43.5858C21.289 43.8832 21.2947 44.1911 21.3685 44.486L22.3685 48.486C22.4769 48.9185 22.7266 49.3024 23.0781 49.5767C23.4296 49.851 23.8627 50 24.3085 50H49.1885C49.6344 50 50.0675 49.851 50.419 49.5767C50.7704 49.3024 51.0202 48.9185 51.1285 48.486Z" stroke="#5C5E65" stroke-width="1.5" stroke-linecap="round" stroke-linejoin="round"/>
<rect x="1.25" y="0.5" width="71" height="71" rx="29.5" stroke="#5C5E65"/>
</svg>
