<svg width="73" height="72" viewBox="0 0 73 72" fill="none" xmlns="http://www.w3.org/2000/svg">
<path d="M26.3438 40.625C28.8981 40.625 30.9688 38.5543 30.9688 36C30.9688 33.4457 28.8981 31.375 26.3438 31.375C23.7894 31.375 21.7188 33.4457 21.7188 36C21.7188 38.5543 23.7894 40.625 26.3438 40.625Z" stroke="#5C5E65" stroke-width="1.5" stroke-linecap="round" stroke-linejoin="round"/>
<path d="M47.1562 30.2188C49.7106 30.2188 51.7812 28.1481 51.7812 25.5938C51.7812 23.0394 49.7106 20.9688 47.1562 20.9688C44.6019 20.9688 42.5312 23.0394 42.5312 25.5938C42.5312 28.1481 44.6019 30.2188 47.1562 30.2188Z" stroke="#5C5E65" stroke-width="1.5" stroke-linecap="round" stroke-linejoin="round"/>
<path d="M47.1562 51.0312C49.7106 51.0312 51.7812 48.9606 51.7812 46.4062C51.7812 43.8519 49.7106 41.7812 47.1562 41.7812C44.6019 41.7812 42.5312 43.8519 42.5312 46.4062C42.5312 48.9606 44.6019 51.0312 47.1562 51.0312Z" stroke="#5C5E65" stroke-width="1.5" stroke-linecap="round" stroke-linejoin="round"/>
<path d="M29.1406 32.3225L42.6688 26.7031M29.1406 39.6763L42.6688 45.2956" stroke="#5C5E65" stroke-width="1.5" stroke-linecap="round" stroke-linejoin="round"/>
<rect x="1.25" y="0.5" width="71" height="71" rx="29.5" stroke="#5C5E65"/>
</svg>
