<svg width="73" height="72" viewBox="0 0 73 72" fill="none" xmlns="http://www.w3.org/2000/svg">
<path d="M46.1694 30.0769C46.1694 27.4458 45.1242 24.9224 43.2637 23.0619C41.4032 21.2015 38.8799 20.1562 36.2488 20.1562C33.6176 20.1562 31.0943 21.2015 29.2338 23.0619C27.3733 24.9224 26.3281 27.4458 26.3281 30.0769V34.1394H46.1694V41.9231C46.1694 44.5542 45.1242 47.0776 43.2637 48.9381C41.4032 50.7985 38.8799 51.8437 36.2488 51.8438C33.6176 51.8437 31.0943 50.7985 29.2338 48.9381C27.3733 47.0776 26.3281 44.5542 26.3281 41.9231V39.8594" stroke="#5C5E65" stroke-width="1.5" stroke-linecap="round" stroke-linejoin="round"/>
<rect x="0.75" y="0.5" width="71" height="71" rx="29.5" stroke="#5C5E65"/>
</svg>
