<svg width="73" height="72" viewBox="0 0 73 72" fill="none" xmlns="http://www.w3.org/2000/svg">
<path d="M22.375 39.084V32.9173C22.375 27.1037 22.375 24.1961 24.1818 22.3908C25.9871 20.584 28.8947 20.584 34.7083 20.584H37.7917C43.6053 20.584 46.5129 20.584 48.3182 22.3908C49.3264 23.3975 49.772 24.7465 49.9678 26.7507M50.125 32.9173V39.084C50.125 44.8976 50.125 47.8052 48.3182 49.6105C46.5129 51.4173 43.6053 51.4173 37.7917 51.4173H34.7083C28.8947 51.4173 25.9871 51.4173 24.1818 49.6105C23.1736 48.6038 22.728 47.2548 22.5322 45.2507M30.0833 39.084H37.7917M30.0833 32.9173H31.625M42.4167 32.9173H36.25" stroke="#5C5E65" stroke-width="1.5" stroke-linecap="round"/>
<rect x="0.75" y="0.5" width="71" height="71" rx="29.5" stroke="#5C5E65"/>
</svg>
