<svg width="73" height="73" viewBox="0 0 73 73" fill="none" xmlns="http://www.w3.org/2000/svg">
<path fill-rule="evenodd" clip-rule="evenodd" d="M41.4223 29.6879L44.6511 26.8179C44.5001 26.4939 44.4158 26.1326 44.4158 25.7515C44.4158 24.3559 45.5471 23.2246 46.9427 23.2246C48.3383 23.2246 49.4696 24.3559 49.4696 25.7515C49.4696 27.1471 48.3383 28.2784 46.9427 28.2784C46.4742 28.2784 46.0354 28.1509 45.6592 27.9287L42.2484 30.9605C42.3079 31.1756 42.3397 31.4021 42.3397 31.636C42.3397 33.0316 41.2084 34.163 39.8128 34.163C38.4172 34.163 37.2859 33.0316 37.2859 31.636C37.2859 31.5265 37.2929 31.4186 37.3064 31.3127L34.5318 30.0014C34.0705 30.4963 33.4128 30.8058 32.6829 30.8058C31.8724 30.8058 31.151 30.4242 30.6886 29.8308L28.0135 31.3475C27.895 30.8411 27.6242 30.3932 27.252 30.055L30.1592 28.4067C30.1571 28.3644 30.156 28.3217 30.156 28.2789C30.156 26.8833 31.2873 25.752 32.6829 25.752C34.0785 25.752 35.2098 26.8833 35.2098 28.2789C35.2098 28.405 35.2006 28.5289 35.1828 28.65L37.9315 29.949C38.3941 29.4334 39.0656 29.1091 39.8128 29.1091C40.4244 29.1091 40.9852 29.3264 41.4223 29.6879ZM33.7098 28.2789C33.7098 28.846 33.2501 29.3058 32.6829 29.3058C32.1158 29.3058 31.656 28.846 31.656 28.2789C31.656 27.7117 32.1158 27.252 32.6829 27.252C33.2501 27.252 33.7098 27.7117 33.7098 28.2789ZM39.8128 32.663C40.38 32.663 40.8397 32.2032 40.8397 31.636C40.8397 31.0689 40.38 30.6091 39.8128 30.6091C39.2457 30.6091 38.7859 31.0689 38.7859 31.636C38.7859 32.2032 39.2457 32.663 39.8128 32.663ZM47.9696 25.7515C47.9696 26.3187 47.5098 26.7784 46.9427 26.7784C46.3755 26.7784 45.9158 26.3187 45.9158 25.7515C45.9158 25.1844 46.3755 24.7246 46.9427 24.7246C47.5098 24.7246 47.9696 25.1844 47.9696 25.7515Z" fill="#5C5E65"/>
<path fill-rule="evenodd" clip-rule="evenodd" d="M25.553 34.4525C26.9486 34.4525 28.08 33.3212 28.08 31.9256C28.08 30.53 26.9486 29.3987 25.553 29.3987C24.1575 29.3987 23.0261 30.53 23.0261 31.9256C23.0261 33.3212 24.1575 34.4525 25.553 34.4525ZM25.553 32.9525C26.1202 32.9525 26.58 32.4927 26.58 31.9256C26.58 31.3584 26.1202 30.8987 25.553 30.8987C24.9859 30.8987 24.5261 31.3584 24.5261 31.9256C24.5261 32.4927 24.9859 32.9525 25.553 32.9525Z" fill="#5C5E65"/>
<path d="M25.5412 36.7347C25.9554 36.7347 26.2912 37.0704 26.2912 37.4847V40.5718C26.2912 40.986 25.9554 41.3218 25.5412 41.3218C25.127 41.3218 24.7912 40.986 24.7912 40.5718V37.4847C24.7912 37.0704 25.127 36.7347 25.5412 36.7347Z" fill="#5C5E65"/>
<path d="M40.5675 37.4847C40.5675 37.0704 40.2317 36.7347 39.8175 36.7347C39.4033 36.7347 39.0675 37.0704 39.0675 37.4847V40.5718C39.0675 40.986 39.4033 41.3218 39.8175 41.3218C40.2317 41.3218 40.5675 40.986 40.5675 40.5718V37.4847Z" fill="#5C5E65"/>
<path d="M46.9549 30.5719C47.3691 30.5719 47.7049 30.9077 47.7049 31.3219V40.5718C47.7049 40.986 47.3691 41.3218 46.9549 41.3218C46.5406 41.3218 46.2049 40.986 46.2049 40.5718V31.3219C46.2049 30.9077 46.5406 30.5719 46.9549 30.5719Z" fill="#5C5E65"/>
<path d="M33.4295 34.4525C33.4295 34.0383 33.0937 33.7025 32.6795 33.7025C32.2653 33.7025 31.9295 34.0383 31.9295 34.4525V40.572C31.9295 40.9862 32.2653 41.322 32.6795 41.322C33.0937 41.322 33.4295 40.9862 33.4295 40.572V34.4525Z" fill="#5C5E65"/>
<path fill-rule="evenodd" clip-rule="evenodd" d="M18.8945 22.6426C18.8945 21.538 19.79 20.6426 20.8945 20.6426H51.6023C52.7069 20.6426 53.6023 21.538 53.6023 22.6426V43.5681C53.6023 44.6727 52.7069 45.5681 51.6023 45.5681H36.9983V50.8589H43.0989C43.5131 50.8589 43.8489 51.1947 43.8489 51.6089C43.8489 52.0231 43.5131 52.3589 43.0989 52.3589H36.2531L36.2483 52.3589L36.2435 52.3589H29.3972C28.983 52.3589 28.6472 52.0231 28.6472 51.6089C28.6472 51.1947 28.983 50.8589 29.3972 50.8589H35.4983V45.5681L20.8945 45.5681C19.79 45.5681 18.8945 44.6727 18.8945 43.5681V22.6426ZM20.8945 22.1426H51.6023C51.8785 22.1426 52.1023 22.3664 52.1023 22.6426V43.5681C52.1023 43.8442 51.8785 44.0681 51.6023 44.0681H20.8945C20.6184 44.0681 20.3945 43.8442 20.3945 43.5681V22.6426C20.3945 22.3664 20.6184 22.1426 20.8945 22.1426Z" fill="#5C5E65"/>
<rect x="0.75" y="1" width="71" height="71" rx="29.5" stroke="#5C5E65"/>
</svg>
