<svg width="24" height="25" viewBox="0 0 24 25" fill="none" xmlns="http://www.w3.org/2000/svg">
<g clip-path="url(#clip0_1234_19118)">
<path d="M12.9399 12.5L18.4666 6.97329C18.5758 6.84576 18.6329 6.68171 18.6264 6.51393C18.6199 6.34614 18.5504 6.18698 18.4317 6.06825C18.3129 5.94952 18.1538 5.87997 17.986 5.87349C17.8182 5.86701 17.6541 5.92408 17.5266 6.03329L11.9999 11.56L6.47327 6.02663C6.34774 5.90109 6.17748 5.83057 5.99994 5.83057C5.82241 5.83057 5.65214 5.90109 5.52661 6.02663C5.40107 6.15216 5.33055 6.32243 5.33055 6.49996C5.33055 6.6775 5.40107 6.84776 5.52661 6.97329L11.0599 12.5L5.52661 18.0266C5.45682 18.0864 5.40014 18.1599 5.36012 18.2426C5.32011 18.3254 5.29762 18.4154 5.29408 18.5073C5.29053 18.5991 5.306 18.6906 5.33952 18.7762C5.37303 18.8617 5.42387 18.9394 5.48884 19.0044C5.55381 19.0694 5.63151 19.1202 5.71706 19.1537C5.80261 19.1872 5.89416 19.2027 5.98598 19.1992C6.07779 19.1956 6.16788 19.1731 6.25059 19.1331C6.3333 19.0931 6.40684 19.0364 6.46661 18.9666L11.9999 13.44L17.5266 18.9666C17.6541 19.0758 17.8182 19.1329 17.986 19.1264C18.1538 19.12 18.3129 19.0504 18.4317 18.9317C18.5504 18.8129 18.6199 18.6538 18.6264 18.486C18.6329 18.3182 18.5758 18.1542 18.4666 18.0266L12.9399 12.5Z" fill="#5C5E65" style="fill:#5C5E65;fill:color(display-p3 0.3608 0.3686 0.3961);fill-opacity:1;"/>
</g>
<defs>
<clipPath id="clip0_1234_19118">
<rect width="24" height="24" fill="white" style="fill:white;fill:white;fill-opacity:1;" transform="translate(0 0.5)"/>
</clipPath>
</defs>
</svg>
