<svg width="25" height="25" viewBox="0 0 25 25" fill="none" xmlns="http://www.w3.org/2000/svg">
<path d="M6.54758 7.73804H13.6904C14.3219 7.73804 14.9275 7.98889 15.374 8.4354C15.8205 8.88192 16.0714 9.48752 16.0714 10.119V14.8809C16.0714 15.5124 15.8205 16.118 15.374 16.5645C14.9275 17.011 14.3219 17.2618 13.6904 17.2618H6.54758C5.91611 17.2618 5.31051 17.011 4.86399 16.5645C4.41748 16.118 4.16663 15.5124 4.16663 14.8809V10.119C4.16663 9.48752 4.41748 8.88192 4.86399 8.4354C5.31051 7.98889 5.91611 7.73804 6.54758 7.73804ZM16.0714 11.3095L18.9285 9.16661C19.1054 9.03396 19.3157 8.95318 19.5359 8.93332C19.7561 8.91347 19.9775 8.95532 20.1752 9.0542C20.373 9.15307 20.5393 9.30505 20.6555 9.49312C20.7717 9.68119 20.8333 9.8979 20.8333 10.119V14.8809C20.8333 15.102 20.7717 15.3187 20.6555 15.5068C20.5393 15.6948 20.373 15.8468 20.1752 15.9457C19.9775 16.0446 19.7561 16.0864 19.5359 16.0666C19.3157 16.0467 19.1054 15.9659 18.9285 15.8333L16.0714 13.6904V11.3095Z" stroke="#5C5E65" style="stroke:#5C5E65;stroke:color(display-p3 0.3608 0.3686 0.3961);stroke-opacity:1;" stroke-linecap="round" stroke-linejoin="round"/>
</svg>
